<?xml version="1.0" encoding="utf-8"?>
<!-- Generator: Adobe Illustrator 19.0.0, SVG Export Plug-In . SVG Version: 6.00 Build 0)  -->
<svg version="1.1" id="Layer_1" xmlns="http://www.w3.org/2000/svg" xmlns:xlink="http://www.w3.org/1999/xlink" x="0px" y="0px"
	 viewBox="0 0 612 792" style="enable-background:new 0 0 612 792;" xml:space="preserve">
<style type="text/css">
	.st0{fill:#56A646;}
</style>
<g id="XMLID_12_" transform="translate(-1)">
	<g id="XMLID_13_">
		<g id="XMLID_14_">
			<path id="XMLID_10_" class="st0" d="M548.2,354.3l-4.7-26c-1.5-6.5-5.4-12.1-10.7-15.5c-5.6-3.5-12.2-4.2-18.3-2.1l-69.1,24.8
				c-0.5-12.7-1.6-25.3-3.4-37.8c-0.8-4.7-4.5-8.1-8.7-8.2c-11.3-1.2-22.6-1.7-33.9-1.4l17.2-78.7c1.3-6.8,0.1-14-3.4-19.9
				c-3.5-5.7-9-9.6-15.1-10.7l-23.3-3.2c-2.5-0.3-4.9,0.8-6.4,3s-1.8,5.1-0.8,7.7c1,2.5,3.1,4.3,5.6,4.7l22.8,3.1
				c2.3,0.4,4.3,1.9,5.6,4c1.4,2.3,1.9,5.1,1.4,7.8l-18.2,83.6c-17.1,2.4-29.5,7.6-35.8,15.2c-3.9,4.8-7.1,10.2-9.6,16
				c0.6,1.7,1.3,3.3,1.9,5c0.1,0.2,0.2,0.4,0.3,0.6c2.2,6.1,4,12.2,5.7,18.4c24.9,5.1,45,25.8,51.4,53c5.7,1.4,11.3,3.1,17,5
				c1.7,0.6,3.4,1.3,5.1,1.9c5.1-3.1,9.7-7.1,13.6-11.8c6.3-7.6,10-21.6,11-40.8l73.4-26.3c2.4-0.9,5-0.6,7.3,0.8
				c1.9,1.2,3.3,3.1,3.9,5.4l4.6,25.5c0.8,4.2,4.4,6.9,8.2,6.1C546.5,362.6,549,358.5,548.2,354.3z"/>
			<path id="XMLID_9_" class="st0" d="M197.7,431c0.2,0.1,0.5,0.2,0.7,0.3c6.2,2.3,12.6,4.1,19,5.3c0.3,0,0.7,0.1,1,0.2
				c2.8,1,62.1,19.8,106.1-19.3c5.1-7.9,11-15.1,17.6-21.6c-2.7-5.4-5.6-10.7-8.8-15.7c-0.5-0.7-0.9-1.4-1.3-2.2
				c-25.8-44.8-77.5-87.2-127.5-85.4c-4.5,0.2-8.9,0.7-13.3,1.7c-4.7,0.9-9.2,2.4-13.6,4.5c-18.5,9.4-30.9,29.2-32.6,51.8
				C138.9,400.2,174.2,422,197.7,431z"/>
			<path id="XMLID_8_" class="st0" d="M172,284.5c5.3-2.5,10.9-4.4,16.6-5.5c55.2-11.3,114.6,30.4,147.5,78.7
				c-1.9-8.6-4.4-17.1-7.4-25.4c-0.1-0.2-0.1-0.4-0.2-0.6c-0.9-2.8-2-5.5-3.1-8.2c-0.1-0.2-0.1-0.4-0.2-0.5
				c-17.9-45.3-52.6-93.7-100.5-102.8c-5.2-0.9-10.6-1.3-15.9-1c-28,2-44.6,23.9-53.6,41.9c-7.4,14.1-10.7,30.4-9.5,46.7
				C152.5,297.4,161.6,289.5,172,284.5z"/>
			<path id="XMLID_7_" class="st0" d="M184.6,474.9c-6.1,13.5-10.6,27.8-13.3,42.6c20.4,3.6,39.4,14,54.6,29.7
				c15.2,15.6,25.9,35.9,30.7,58.2c13.1-4.1,25.6-10.2,37.2-18c-5.7-28.8-19.3-55.1-38.8-75.1C235.4,492.2,210.9,479.1,184.6,474.9z
				"/>
			<path id="XMLID_6_" class="st0" d="M455.3,566.7c5.9-60.5-39.7-122.3-85.7-149.8c-0.7-0.4-1.4-0.8-2.1-1.3
				c-4.8-3.2-9.7-6-14.7-8.6c-5.2,7.8-11.3,14.9-18,21.1c-31.9,51.7-10.5,115.9-9.4,119c0.1,0.3,0.2,0.7,0.3,1.1
				c1.5,6.9,3.5,13.7,6.1,20.3c0.3,0.4,0.4,0.9,0.5,1.5c9.9,25.4,32.1,62.6,76,52.1c20.1-3.5,37-18.8,44.1-40
				C453.9,577,454.9,571.9,455.3,566.7z"/>
			<path id="XMLID_5_" class="st0" d="M311.8,444.2c-16.1,8.1-33.5,12.4-51.2,12.9c-15.3,0.6-30.6-1.2-45.5-5.4
				c-5.4-0.9-10.7-2.2-16-4c-2.6,4.2-5.1,8.5-7.4,12.7c27.2,5.5,52.4,19.6,72.6,40.6c20.3,20.8,34.9,47.7,41.8,77.4
				c3.7-2.9,7.4-6,11-9.2c-2-5.6-3.7-11.4-5-17.3C310.3,546,294.7,494.2,311.8,444.2z"/>
			<path id="XMLID_4_" class="st0" d="M419.5,420.2c-0.1,0-0.2-0.1-0.4-0.1c-2.5-1-5.1-1.9-7.6-2.7c-7.9-2.7-15.9-4.9-24-6.5
				c45.8,32.8,87.7,95.5,81.6,157.6c-0.6,6.4-1.8,12.7-3.7,18.8c-3.7,11.9-10.2,22.5-18.7,30.8c14.7,0.2,29.1-4.7,41.1-14.1
				c15.5-11.3,33.9-31.2,33.6-62.6c-0.1-5.9-0.8-11.7-2-17.4C507.6,471.5,461.5,436.6,419.5,420.2z"/>
			<path id="XMLID_3_" class="st0" d="M356,391.2c6.7,0.3,13.3,1,19.9,2.1l2.2,0.4c1.6,0.2,3.3,0.5,4.9,0.7
				c-2.8-7.7-7.1-14.7-12.5-20.4c-5.6-5.6-12.1-9.9-19.3-12.4c0.3,1.8,0.7,3.6,1,5.5c0.1,0.4,0.3,1.3,0.5,2.5
				C354.2,376.6,355.3,383.9,356,391.2z"/>
			<path id="XMLID_2_" class="st0" d="M169.5,532.8c-1.3,14.4,0.8,28.9,6,42.1c-4.5,19.7-13.6,37.8-26.3,52.5c-2.6,3.1-2.4,8,0.4,11
				c2.9,2.9,7.3,2.7,9.9-0.4c12.2-15.1,27.7-26.5,45-33c12.4,4.9,25.6,6.1,38.5,3.6c-4.2-19.2-13.4-36.6-26.6-50
				C203.4,545,187,536,169.5,532.8z"/>
		</g>
	</g>
</g>
</svg>
