<?xml version="1.0" encoding="utf-8"?>
<!-- Generator: Adobe Illustrator 19.0.0, SVG Export Plug-In . SVG Version: 6.00 Build 0)  -->
<svg version="1.1" id="Layer_1" xmlns="http://www.w3.org/2000/svg" xmlns:xlink="http://www.w3.org/1999/xlink" x="0px" y="0px"
	 viewBox="0 0 612 792" style="enable-background:new 0 0 612 792;" xml:space="preserve">
<style type="text/css">
	.st0{fill:#FFFFFF;stroke:#56A646;stroke-width:7;stroke-miterlimit:10;}
	.st1{fill:#FDFEFD;}
	.st2{fill:#56A646;}
</style>
<ellipse id="XMLID_1_" class="st0" cx="316.5" cy="428" rx="277.5" ry="283"/>
<path class="st1" d="M401,272c-0.5-0.6-0.9-1.2-1.3-1.8c-2.2-1.6-4.2-3.3-6.3-5C395.5,267.9,398.2,271,401,272z"/>
<path class="st1" d="M439.6,266.1c-10.7-4.9-21.2-11.6-27.3-20.8c-1.7,1.1-4,1.1-5.9-0.8c-2-2-4.1-4-6.2-6c0.3,0.7,0.7,1.3,1,2
	c2,3.9-1.3,8.3-5.6,7.3c-4.4-1-8-2.9-10.9-5.3c3.9,5.2,8.5,10,13.5,14.4c1.1-0.7,2.5-1.1,4.1-0.7c12.5,2.8,23.2,9.8,34.1,16.4
	C435.6,269.9,437.2,266.9,439.6,266.1z"/>
<path class="st1" d="M422.3,231c-1.5-2.4-3-4.9-4.3-7.4c-2.5-1.6-5-3.1-7.6-4.4C414.3,223.2,418.3,227.2,422.3,231z"/>
<path class="st1" d="M454.7,271.8c-2-0.6-4-1.3-6.1-2.1c3,1.9,6,3.8,8.8,5.8c-0.4-1.2-0.8-2.4-1.2-3.5
	C455.7,272,455.2,272,454.7,271.8z"/>
<path class="st1" d="M412.9,235.5c-3-2.9-5.9-5.9-8.9-8.8c0,0-0.1,0-0.1,0.1c2.8,3.1,5.6,6.1,8.3,9.2
	C412.4,235.8,412.7,235.6,412.9,235.5z"/>
<path class="st1" d="M412.4,278.6c-0.7,0.6-1.4,1.2-2.2,1.6c2.9,0.7,5.9,1.4,8.9,2C416.9,281.1,414.6,279.9,412.4,278.6z"/>
<path class="st1" d="M482.2,272.3c-0.1-0.6-0.3-1.3-0.4-1.9c-0.7-1.4-1.3-2.7-2-4.1c0.7,1.9,1.4,3.8,2.1,5.7
	C482,272.1,482.1,272.2,482.2,272.3z"/>
<path class="st1" d="M498,611.5c0.2,0.1,0.3,0.2,0.5,0.4c0.2-0.3,0.4-0.6,0.6-0.9c0.6-1.5,1.1-3,1.6-4.5
	C499.8,608.1,498.9,609.8,498,611.5z"/>
<path class="st1" d="M502.2,556.3c-0.5-1.8-0.9-3.7-1.3-5.5c-1-0.8-1.8-2.1-1.9-3.8c-0.1-2-0.2-4-0.3-6c-2.7-13.3-4.8-26.8-8-40
	c-9.5,34.8-7.7,71.9-7.2,108.4c2.4-5,5.4-9.8,9.1-13.8c0-0.4-0.1-0.8-0.1-1.3c0-5.7,2.8-11.3,5.5-16.1c2.5-4.4,5.3-8.8,8.6-12.7
	c0.9-2.1,1.9-4.1,2.8-6.1C506.9,560.7,503,559.7,502.2,556.3z"/>
<path class="st1" d="M171.9,582.4c0.4-0.6,0.7-1.2,1-1.9c-1.8-0.1-3.6-0.5-5.2-1.1c0.5,2.2,1,4.3,1.6,6.5
	C170.4,585,171.3,583.4,171.9,582.4z"/>
<path class="st1" d="M203.9,583c-0.7,1-1.5,2.1-2.3,3.3c0.2,0,0.4,0,0.5,0c1.8-2.1,3.4-4.3,5-6.6c-0.2-0.1-0.4-0.1-0.6-0.2
	C205.6,580.8,204.7,581.9,203.9,583z"/>
<path class="st1" d="M207.2,557c-1.3,1.7-2,3.8-1.9,6.2c0.1,1.2,0.3,2.3,0.6,3.2c0.1-0.1,0.2-0.2,0.4-0.3c-0.3-4,0.9-7.7,3.2-10.6
	C208.8,556,208,556.5,207.2,557z"/>
<path class="st1" d="M204.9,544c0.2-1.5,0-3.1-0.5-4.7c-1.6,1.4-3.4,2.6-5.4,3.7c1.6,0.9,3.3,1.5,5.2,1.8
	C204.4,544.5,204.7,544.2,204.9,544z"/>
<path class="st1" d="M196,567.8c-0.3-1-0.5-2-0.6-3c-0.9,0.5-1.8,0.9-2.8,1.3c-0.1,1.6-0.5,3.2-1.2,4.7c0.4,1,0.7,2,1,3.1
	c1.9-0.2,3.8-0.6,5.7-1.3C197.2,571.2,196.5,569.6,196,567.8z"/>
<path class="st1" d="M180.9,492.2c-1.1,1.8-1.2,3.5-0.3,4.6c3.4-2.5,7.8-4,12.6-4c0.5-0.6,1-1.2,1.5-1.8c1.2-1.5,2.4-3.4,3.4-5.4
	c-1.4-0.5-2.9-0.8-4.2-0.7C188.9,485,183.5,488,180.9,492.2z"/>
<path class="st1" d="M169,493C169,493,169,493,169,493c0.4,1,0.7,2,1,3c0-1,0-2.1,0.2-3.2C169.8,492.9,169.4,493,169,493z"/>
<path class="st1" d="M198.3,475.3c0.8,0.2,1.6,0.4,2.4,0.6c0-3.6-1.5-6.9-5.4-8.8c-2.2-1.1-4.4-1.3-6.4-0.8c0.3,3.1,0,6.4-0.8,9.5
	C191.4,474.8,194.9,474.6,198.3,475.3z"/>
<path class="st1" d="M173.3,459.7c-3.4-0.9-6.7,1.1-9.2,3.6c0.2,0,0.4-0.1,0.6-0.1c2.4-0.6,5.7,0.8,6.2,3.5c0.1,0.8,0.2,1.5,0.2,2.3
	c1.8-2.5,3.9-4.8,6.2-6.8C176.2,461,175,460.1,173.3,459.7z"/>
<path class="st2" d="M411.6,402.2c-13.8,15.9-34.3,23.2-57.3,27.6c-4.8,0.9-10.1,3.4-13.2,6.4c-8.8,8.2-16.9,17-24.8,25.8
	c-2.2,2.4-3.8,5.8-3.9,8.7c-0.2,35.5-0.1,70.9-0.1,106.4c0,1.1,0.4,2.2,0.9,4.9c5.9-2.4,10.9-4.4,15.9-6.6c16.6-7.1,28-4.6,37,8.2
	c2.8,4.1,5.6,8.2,8.5,12.3c6.2,8.6,15,14,28,15.3c25.8,2.6,39.8,16.6,39.6,41.7c-90.5,0-181.1,0-271.7,0
	c-5.7-15.2,8.3-33.7,30.2-37.2c14.1-2.2,21.2-8.1,25.3-18.1c2.7-6.6,5.7-13.3,10-19.3c8.7-12.4,25.3-14.7,39.6-6.1
	c6.8,4.1,13.7,8.3,22.9,13.8c0-20,2.1-37.5-0.9-54.5c-1.4-8.3-12.3-15.5-18.8-23.2c-7.6-9-15.4-16.1-30.8-19
	c-36.4-6.8-56.5-27.7-65.9-54.9c-4.6-13.3-6.6-27.3-8.8-41.1c-1.5-9.6,1.3-11.5,13.8-10c30.7,3.6,55.1,15.6,67.9,37.8
	c8.8,15.4,15.3,32.3,17.7,48.9c2.3,15.5,13.7,25.5,24.8,39.1c0.7-4.1,1.2-5.9,1.2-7.7c0-43.6,0.2-87.2-0.2-130.8
	c0-4.1-2-8.5-4.6-12.1c-32.9-45.3-29-89.9,4.5-133.8c5.7-7.4,8.6-7.3,14.3,0c34.7,44.9,36.3,90.3,3.1,136.2
	c-1.6,2.2-3.4,4.8-3.4,7.2c-0.2,24.6-0.2,49.2,1.3,74.3c8.9-10.8,24-17.9,25.4-32.9c1.8-19.8,8.3-38.9,21.8-56.1
	c15.3-19.4,38.7-29,66.6-32.9c8.2-1.2,13.8,1.7,12.9,8.3c-3.3,24.5-6.6,49.1-25.8,70.1C413.6,400.1,412.6,401.1,411.6,402.2z"/>
<path class="st2" d="M411.6,402.2c1-1.1,2-2.2,3-3.2c15.1,6.2,12.5,17.4,12.4,27.7c-0.3,47.6-0.8,95.2-1.2,142.9c0,2.8,0,5.6,0,11
	c10.7-9.6,19.4-17.3,28-25.1c4.3-3.9,8.6-7.9,15.3-2.4c5.9,4.9,1.4,7.9-2.8,11.5c-14.3,12.6-28.4,25.3-42.2,38.2
	c-4.8,4.5-8.1,5.5-13.6,0.2c-13.8-13.3-28.6-25.9-42.2-39.4c-2.4-2.4-2.6-8.3-0.4-10.8c4-4.7,8.9-1.7,12.6,1.7
	c8.9,8.1,17.7,16.1,28.1,25.6c0.4-4,0.7-6.1,0.7-8.3c0.4-48.8,0.7-97.6,1.3-146.3c0.1-5.7,2.1-11.4,2.7-17.2
	C413.7,406.4,412.2,404.3,411.6,402.2z"/>
</svg>
