<?xml version="1.0" encoding="utf-8"?>
<!-- Generator: Adobe Illustrator 19.0.0, SVG Export Plug-In . SVG Version: 6.00 Build 0)  -->
<svg version="1.1" id="Layer_1" xmlns="http://www.w3.org/2000/svg" xmlns:xlink="http://www.w3.org/1999/xlink" x="0px" y="0px"
	 viewBox="0 0 612 792" style="enable-background:new 0 0 612 792;" xml:space="preserve">
<style type="text/css">
	.st0{fill:#55A635;stroke:#55A635;stroke-width:9;stroke-miterlimit:10;}
	.st1{fill:#55A635;stroke:#55A635;stroke-width:10;stroke-miterlimit:10;}
</style>
<path class="st0" d="M395.3,395.7c-0.1-13.6-8.8-22.2-26-22.3c-81.5-0.3-162.9-0.3-244.4,0c-12.8,0-21.6,3.8-21.4,17.2
	c0.8,56.2,0.7,112.5,0.1,168.7c-0.1,13.2,6.3,17,21.6,16.8c29.5-0.4,59.1-0.3,88.6-0.2c0-2.4,0.2-4.7,0.7-7
	c-0.1-0.4-0.2-0.9-0.3-1.3c-32.9,0-65.8,0-98.9,0V429.4c0-0.9,0-1.8,0-2.7v-3.5h0.4c0.1-0.8,0.2-1.5,0.4-2.3c0-0.1,0-0.2,0-0.2
	c-0.1-0.9-0.1-1.8,0.1-2.5c0-0.3,0-0.5,0-0.8h-0.8v-35.7c85.4,0,170.2-0.2,254.9,0.6c5,0,14,8.4,14.1,13c0.6,29.6,0.8,59.2,0.7,88.8
	c1.5,0.1,3,0.2,4.5,0.4c2,0.1,4,0.3,6,0.5C395.5,455.2,395.4,425.4,395.3,395.7z"/>
<path class="st1" d="M476.8,501.5c-0.1-13.6-8.1-22.2-23.9-22.3c-75-0.3-149.9-0.3-224.9,0c-11.8,0-19.9,3.8-19.7,17.2
	c0.8,56.2,0.6,112.5,0.1,168.7c-0.1,13.2,5.8,17,19.9,16.8c37.5-0.6,75-0.2,112.4-0.2c35.9,0,71.8-0.9,107.6,0.4
	c19.6,0.7,28.2-7,28.3-22.5C477.2,607,477,554.2,476.8,501.5z M466.6,659.4c-0.1,4.7-9.7,13.2-15,13.3
	c-77.2,0.9-154.4,0.6-232.5,0.6V585c-0.1-0.2-0.1-0.5-0.1-0.7c-0.4-3.1-0.4-6.5,0.1-9.6v-2.9c-0.1-0.5-0.1-1-0.1-1.4
	c0-0.4,0-0.8,0.1-1.2v-31.8c-0.9-5-0.2-9.9-0.1-15c0-0.5,0.1-0.9,0.2-1.3v-33.4c78.6,0,156.6-0.2,234.5,0.6c4.6,0,12.9,8.4,12.9,13
	C467.6,553.9,467.7,606.7,466.6,659.4z"/>
</svg>
