<?xml version="1.0" encoding="utf-8"?>
<!-- Generator: Adobe Illustrator 19.0.0, SVG Export Plug-In . SVG Version: 6.00 Build 0)  -->
<svg version="1.1" id="Layer_1" xmlns="http://www.w3.org/2000/svg" xmlns:xlink="http://www.w3.org/1999/xlink" x="0px" y="0px"
	 viewBox="0 0 612 792" style="enable-background:new 0 0 612 792;" xml:space="preserve">
<style type="text/css">
	.st0{fill:#FFFFFF;stroke:#55A635;stroke-width:7;stroke-miterlimit:10;}
	.st1{fill:#FDFEFD;}
	.st2{fill:#55A635;}
</style>
<ellipse id="XMLID_1_" class="st0" cx="316.5" cy="428" rx="277.5" ry="283"/>
<path class="st1" d="M401,272c-0.5-0.6-0.9-1.2-1.3-1.8c-2.2-1.6-4.2-3.3-6.3-5C395.5,267.9,398.2,271,401,272z"/>
<path class="st1" d="M439.6,266.1c-10.7-4.9-21.2-11.6-27.3-20.8c-1.7,1.1-4,1.1-5.9-0.8c-2-2-4.1-4-6.2-6c0.3,0.7,0.7,1.3,1,2
	c2,3.9-1.3,8.3-5.6,7.3c-4.4-1-8-2.9-10.9-5.3c3.9,5.2,8.5,10,13.5,14.4c1.1-0.7,2.5-1.1,4.1-0.7c12.5,2.8,23.2,9.8,34.1,16.4
	C435.6,269.9,437.2,266.9,439.6,266.1z"/>
<path class="st1" d="M422.3,231c-1.5-2.4-3-4.9-4.3-7.4c-2.5-1.6-5-3.1-7.6-4.4C414.3,223.2,418.3,227.2,422.3,231z"/>
<path class="st1" d="M454.7,271.8c-2-0.6-4-1.3-6.1-2.1c3,1.9,6,3.8,8.8,5.8c-0.4-1.2-0.8-2.4-1.2-3.5
	C455.7,272,455.2,272,454.7,271.8z"/>
<path class="st1" d="M412.9,235.5c-3-2.9-5.9-5.9-8.9-8.8c0,0-0.1,0-0.1,0.1c2.8,3.1,5.6,6.1,8.3,9.2
	C412.4,235.8,412.7,235.6,412.9,235.5z"/>
<path class="st1" d="M412.4,278.6c-0.7,0.6-1.4,1.2-2.2,1.6c2.9,0.7,5.9,1.4,8.9,2C416.9,281.1,414.6,279.9,412.4,278.6z"/>
<path class="st1" d="M482.2,272.3c-0.1-0.6-0.3-1.3-0.4-1.9c-0.7-1.4-1.3-2.7-2-4.1c0.7,1.9,1.4,3.8,2.1,5.7
	C482,272.1,482.1,272.2,482.2,272.3z"/>
<path class="st1" d="M498,611.5c0.2,0.1,0.3,0.2,0.5,0.4c0.2-0.3,0.4-0.6,0.6-0.9c0.6-1.5,1.1-3,1.6-4.5
	C499.8,608.1,498.9,609.8,498,611.5z"/>
<path class="st1" d="M502.2,556.3c-0.5-1.8-0.9-3.7-1.3-5.5c-1-0.8-1.8-2.1-1.9-3.8c-0.1-2-0.2-4-0.3-6c-2.7-13.3-4.8-26.8-8-40
	c-9.5,34.8-7.7,71.9-7.2,108.4c2.4-5,5.4-9.8,9.1-13.8c0-0.4-0.1-0.8-0.1-1.3c0-5.7,2.8-11.3,5.5-16.1c2.5-4.4,5.3-8.8,8.6-12.7
	c0.9-2.1,1.9-4.1,2.8-6.1C506.9,560.7,503,559.7,502.2,556.3z"/>
<path class="st1" d="M171.9,582.4c0.4-0.6,0.7-1.2,1-1.9c-1.8-0.1-3.6-0.5-5.2-1.1c0.5,2.2,1,4.3,1.6,6.5
	C170.4,585,171.3,583.4,171.9,582.4z"/>
<path class="st1" d="M203.9,583c-0.7,1-1.5,2.1-2.3,3.3c0.2,0,0.4,0,0.5,0c1.8-2.1,3.4-4.3,5-6.6c-0.2-0.1-0.4-0.1-0.6-0.2
	C205.6,580.8,204.7,581.9,203.9,583z"/>
<path class="st1" d="M207.2,557c-1.3,1.7-2,3.8-1.9,6.2c0.1,1.2,0.3,2.3,0.6,3.2c0.1-0.1,0.2-0.2,0.4-0.3c-0.3-4,0.9-7.7,3.2-10.6
	C208.8,556,208,556.5,207.2,557z"/>
<path class="st1" d="M204.9,544c0.2-1.5,0-3.1-0.5-4.7c-1.6,1.4-3.4,2.6-5.4,3.7c1.6,0.9,3.3,1.5,5.2,1.8
	C204.4,544.5,204.7,544.2,204.9,544z"/>
<path class="st1" d="M196,567.8c-0.3-1-0.5-2-0.6-3c-0.9,0.5-1.8,0.9-2.8,1.3c-0.1,1.6-0.5,3.2-1.2,4.7c0.4,1,0.7,2,1,3.1
	c1.9-0.2,3.8-0.6,5.7-1.3C197.2,571.2,196.5,569.6,196,567.8z"/>
<path class="st1" d="M180.9,492.2c-1.1,1.8-1.2,3.5-0.3,4.6c3.4-2.5,7.8-4,12.6-4c0.5-0.6,1-1.2,1.5-1.8c1.2-1.5,2.4-3.4,3.4-5.4
	c-1.4-0.5-2.9-0.8-4.2-0.7C188.9,485,183.5,488,180.9,492.2z"/>
<path class="st1" d="M169,493L169,493c0.4,1,0.7,2,1,3c0-1,0-2.1,0.2-3.2C169.8,492.9,169.4,493,169,493z"/>
<path class="st1" d="M198.3,475.3c0.8,0.2,1.6,0.4,2.4,0.6c0-3.6-1.5-6.9-5.4-8.8c-2.2-1.1-4.4-1.3-6.4-0.8c0.3,3.1,0,6.4-0.8,9.5
	C191.4,474.8,194.9,474.6,198.3,475.3z"/>
<path class="st1" d="M173.3,459.7c-3.4-0.9-6.7,1.1-9.2,3.6c0.2,0,0.4-0.1,0.6-0.1c2.4-0.6,5.7,0.8,6.2,3.5c0.1,0.8,0.2,1.5,0.2,2.3
	c1.8-2.5,3.9-4.8,6.2-6.8C176.2,461,175,460.1,173.3,459.7z"/>
<path class="st2" d="M94.8,584.2c-0.5-15.5,6.8-27,19.8-29.5c8.5-1.6,13.5-6.6,16.1-16.2c0.7-2.6,1.8-4.9,2.8-7.4
	c6.3-15.9,17.2-19.4,29.3-9.6c3.6,2.9,7.3,5.7,12.7,9.7c0-15.8,3.5-31.6-0.9-42.6c-5.4-13.6-12.7-29.4-27.8-33.1
	c-34.5-8.4-47.8-39.1-49.7-78.8c-0.4-8.3,4.3-7.2,8.4-6.7c28.1,2.8,48.3,25.5,53,62.1c1.9,15,6.5,26.7,16.5,36.6
	c0.2-3,0.6-5.5,0.6-7.9c0-32.3,0.2-64.6-0.1-96.9c-0.1-5-1.5-10.7-3.8-14.9c-18.3-34.1-17.4-70.3,2.7-103.2c4-6.5,6.6-7.7,11-0.2
	c20.1,34.3,21.1,67.3,3.1,103.4c-2.6,5.1-3.9,11.8-4.1,17.9c-0.6,16.2-0.2,32.5-0.2,51c9.2-9.8,16-17.6,17.7-31.9
	c4.7-39,22-59.5,52.5-65.1c9.1-1.7,11,0.8,9.3,12c-0.8,5.3-1.4,10.7-2.3,16c-5.6,30.9-20.4,51-46,56.5c-9,1.9-14.2,8.4-20.3,15.3
	c-8.5,9.7-11.8,20.5-11.2,35c1,23.7,0.3,47.5,0.3,72.9c5.1-2.7,9-5,13-6.9c8.9-4.2,15.9-2.1,20.6,8c6.4,13.7,15,21.2,28.1,23.2
	c13.1,2,20.2,15,19.5,31.5C208.6,584.2,152,584.2,94.8,584.2z"/>
<path class="st2" d="M367.5,584.1c-1.5-13.6,6.2-26.6,19.1-28.9c9.7-1.8,14.2-8.1,17.7-18.3c8.1-23.3,17.2-26.2,34.6-12.3
	c2.6,2.1,5.5,3.7,9.7,6.4c0-14.9,0.1-27.8-0.1-40.6c-0.1-2.4-1.6-4.9-2.9-7c-2.9-4.5-6.3-8.5-9.2-13.1c-5.1-8.2-10.9-13.7-19.9-15.9
	c-33.3-8.2-45-41.7-46.9-77.2c-0.4-7.4,3.5-7.6,7.5-7c21,2.8,38.3,13.3,47.6,37.9c3.7,9.7,6.8,20.4,7.5,30.9
	c0.9,14,8.8,20.6,16.4,29c0-14.8,0-29.6,0-44.5c0-19.7,0.3-39.5-0.2-59.2c-0.1-5-1.6-10.7-3.8-14.8c-18.6-34.4-17.7-71.1,2.7-104
	c3.8-6.1,6.2-7.3,10.4-0.3c20.4,33.7,21.5,67.6,3.5,103.2c-2.4,4.8-3.9,11.2-4,16.9c-0.5,17-0.2,34-0.2,53.5
	c7.7-10.7,15.9-17.1,17.2-31.8c3.5-38.3,23-61.5,53.4-66.5c8-1.3,10.2,1.4,8.9,11.2c-0.9,6.7-1.8,13.4-3.2,20
	c-6.2,29.4-20.9,48.3-45.4,53.6c-8.3,1.8-13.5,7.2-19.2,13.7c-9.1,10.4-12.9,21.9-12.1,37.6c1.2,23.3,0.3,46.8,0.3,71.8
	c4.3-2.4,7.8-4.4,11.2-6.2c10.1-5.3,17-3.3,22.6,8.2c6.3,12.9,14.4,20.1,26.8,22.1c13.7,2.2,19.7,12.8,20.3,31.4
	C481.2,584.1,424.4,584.1,367.5,584.1z"/>
<path class="st2" d="M263.2,506.8c36.4,0,71.4,0,107.7,0c-5.4-8.8-10.2-16.5-14.9-24.2c-1.5-2.4-3.8-5.1-3.8-7.6
	c0-3.3,1.9-6.6,2.9-9.8c1.8,1.5,4.1,2.5,5.4,4.5c8.2,12.7,16,25.9,24.5,38.4c3.6,5.3,3.4,8.5-0.1,13.6
	c-8.1,11.9-15.5,24.7-23.5,36.8c-1.6,2.4-4.3,3.7-6.5,5.5c-0.5-4.3-2.5-9.7-1.1-12.6c3.6-7.9,8.7-14.8,13.2-22.1
	c1.1-1.8,2.1-3.7,3.7-6.5c-35.9,0-70.9,0-107.3,0c5.3,8.5,10.3,16.3,15,24.3c1.7,2.9,3.3,6.4,3.6,9.8c0.2,2.3-2.1,4.9-3.3,7.4
	c-1.6-1.4-3.6-2.4-4.8-4.2c-8.5-13.3-17.1-26.6-25.2-40.3c-1.3-2.2-1.8-7.2-0.7-9.1c8.6-14.5,17.6-28.7,26.7-42.8
	c0.9-1.4,3.4-1.3,5.1-2c0.4,4.1,2.3,9.1,1,12c-3.1,7.1-7.7,13.2-11.7,19.7C267.5,500.2,265.8,502.8,263.2,506.8z"/>
</svg>
