<?xml version="1.0" encoding="utf-8"?>
<!-- Generator: Adobe Illustrator 19.0.0, SVG Export Plug-In . SVG Version: 6.00 Build 0)  -->
<svg version="1.1" id="Layer_1" xmlns="http://www.w3.org/2000/svg" xmlns:xlink="http://www.w3.org/1999/xlink" x="0px" y="0px"
	 viewBox="0 0 612 792" style="enable-background:new 0 0 612 792;" xml:space="preserve">
<style type="text/css">
	.st0{fill:#FFFFFF;stroke:#56A646;stroke-width:7;stroke-miterlimit:10;}
	.st1{fill:#56A646;}
</style>
<ellipse id="XMLID_1_" class="st0" cx="324.6" cy="428" rx="277.5" ry="283"/>
<path id="XMLID_15_" class="st1" d="M301.5,221.1h-55.9c-4.4,0-8,4.1-8,9.1c0,5,3.6,9.1,8,9.1h55.9c4.4,0,8-4.1,8-9.1
	C309.5,225.1,305.9,221.1,301.5,221.1z"/>
<path id="XMLID_10_" class="st1" d="M520,449.8l-63.4-72.3c-12.8-14.6-33.1-15.4-45.2-1.6c-4.1,4.7-6.8,10.5-8,16.9
	c-4.7-3.2-10-5-15.5-5.2c-2.4-0.1-4.8,0.1-7.1,0.6v-41.7h68.8c4.4,0,8-4.1,8-9.1c0-5-3.6-9.1-8-9.1h-68.8v-97.8
	c0-22.1-15.8-40.2-35.2-40.2h-144c-19.4,0-35.2,18-35.2,40.2v63.9c0,5,3.6,9.1,8,9.1c4.4,0,8-4.1,8-9.1v-24h182.6v127.6
	c-3.8,4.5-6.5,10.3-7.6,16.5c-12.4-8.3-28.1-6.9-38.1,4.6c-3.9,4.4-6.4,9.7-7.7,15.4l-27.1-30.9c-12-13.7-30.6-15.2-42.8-4.1
	c-0.8,0.7-1.6,1.5-2.4,2.4c-12.1,13.7-11.4,36.8,1.4,51.5l37.4,42.7h-95.9V367.1c0-5-3.6-9.1-8-9.1c-4.4,0-8,4.1-8,9.1v205.4
	c0,22.1,15.8,40.2,35.2,40.2h91.7c2,17.6,15.3,31.3,31.3,31.3c0,0,123.6,0.1,124.7,0.1c26.4,0,51.9-12,70.6-33.3
	C558.9,566.3,558.9,494.2,520,449.8z M182.3,252.1v-21.7c0-12.1,8.7-22,19.3-22h144c10.7,0,19.3,9.9,19.3,22v21.7H182.3z
	 M182.3,572.5v-58.4h111.8l45.4,51.8c-4.5,0-9.1,0-13.6,0c-3.5,0-6.9,0.4-10.3,1.5c-5.1,1.7-9.8,5-13.6,9.4
	c-4.2,4.9-7.1,11.1-8.3,17.8h-92.1C191,594.5,182.3,584.6,182.3,572.5z M508.7,597.9c-16.4,18.7-39.1,28.9-62.2,27.9
	c-0.1,0-121.9,0-121.9,0c-8.1,0-15.1-7.4-15.6-16.6c-0.1-2.4-0.1-4.9,0-7.3c0-4.4,1.4-8.6,4-11.9c3-3.8,7.3-6,11.7-6h30.8l12,13.7
	c1.6,1.8,3.6,2.7,5.6,2.7c2,0,4.1-0.9,5.6-2.7c3.1-3.5,3.1-9.3,0-12.8L252,440.5c-4.2-4.8-6.5-12.1-4.9-18.9c0.8-3.3,2.5-6.4,5-8.4
	c3-2.5,6.7-3.5,10.4-3c4.1,0.5,7.9,2.8,10.8,6.1l87.5,99.7c1.6,1.8,3.6,2.7,5.6,2.7c2,0,4.1-0.9,5.6-2.7c3.1-3.5,3.1-9.3,0-12.8
	l-40-45.6c-6.6-7.6-7.3-19.2-1.4-25.8c5.8-6.7,16-5.9,22.7,1.6l39.6,45.1c1.6,1.8,3.6,2.7,5.6,2.7c2,0,4.1-0.9,5.6-2.7
	c3.1-3.5,3.1-9.3,0-12.8L378,436c-1.2-1.4-2.3-3-3.1-4.6c-1.6-3.3-2.4-6.9-2.3-10.4c0.1-4.1,1.4-7.9,4-10.8c0.3-0.3,0.6-0.7,0.9-1
	c0.1-0.1,0.1-0.1,0.2-0.2c2.6-2.4,5.9-3.5,9.5-3.4c4.4,0.2,8.7,2.4,12,6.2l26,29.6c1.6,1.8,3.6,2.7,5.6,2.7c2,0,4.1-0.9,5.6-2.7
	c3.1-3.5,3.1-9.3,0-12.8l-12.4-14.1c-3.3-3.8-5.2-8.6-5.4-13.6c-0.2-4.7,1.2-9.1,4-12.2c5.9-6.7,16-5.9,22.7,1.6l63.4,72.3
	C541.4,499.9,541.4,560.6,508.7,597.9z"/>
<path id="XMLID_9_" class="st1" d="M167,334.2c1.3,3.5,4.4,5.8,7.7,5.6c3.3-0.2,6.3-2.8,7.2-6.4c0.9-3.5-0.1-7.3-2.6-9.6
	c-2.7-2.5-6.6-2.7-9.5-0.5C166.8,325.5,165.6,330.2,167,334.2z"/>
<path id="XMLID_6_" class="st1" d="M273.6,528.4c-12.5,0-22.6,11.6-22.6,25.8c0,14.2,10.1,25.8,22.6,25.8
	c12.5,0,22.6-11.6,22.6-25.8S286.1,528.4,273.6,528.4z M273.6,561.9c-3.7,0-6.7-3.4-6.7-7.6c0-4.2,3-7.6,6.7-7.6
	c3.7,0,6.7,3.4,6.7,7.6C280.3,558.4,277.3,561.9,273.6,561.9z"/>
<path id="XMLID_5_" class="st1" d="M229.4,380c-3.1-3.5-8.1-3.5-11.3,0c-11,12.5-17,29.1-17,46.8c0,17.7,6,34.3,17,46.8
	c1.6,1.8,3.6,2.7,5.6,2.7c2,0,4.1-0.9,5.6-2.7c3.1-3.5,3.1-9.3,0-12.8c-8-9.1-12.4-21.2-12.4-34s4.4-24.9,12.4-34
	C232.5,389.3,232.5,383.5,229.4,380z"/>
<path id="XMLID_4_" class="st1" d="M404.8,308.6h65.4c4.4,0,8-4.1,8-9.1s-3.6-9.1-8-9.1h-65.4c-4.4,0-8,4.1-8,9.1
	S400.4,308.6,404.8,308.6z"/>
<path id="XMLID_3_" class="st1" d="M494.7,303c1.3,3.5,4.5,5.8,7.9,5.6c3.3-0.2,6.1-2.8,7.1-6.4c1-3.6-0.2-7.7-2.9-9.9
	c-2.6-2.2-6.2-2.3-8.9-0.4C494.5,294.2,493.2,299,494.7,303z"/>
<path id="XMLID_23_" class="st1" d="M356.5,297.6c-1.6-0.7-3.2-1.2-4.9-1.3c4.1-5.1,6.1-13.9,6.1-13.9s-8.8,2.4-12.8,6.6
	c-0.1-1.8-0.5-3.6-1.2-5.3l-3.6-9.2l-3.5,9.2c-1.7,4.3-1.6,9.3,0,13.6l0.2,0.4c-0.8-0.2-1.6-0.2-2.5-0.2c-2.4,0.2-4.6,1.4-6.1,3.3
	c-1.7,2.2-14.8,20.7-25.5,35.9c-1.1,1.5-0.9,3.5,0.3,4.8c0.7,0.7,1.5,1.1,2.4,1.1c0.7,0,1.4-0.2,2-0.7c21.3-17,32.9-26.5,34.3-28.4
	c1.9-2.4,2.6-5.6,2-8.5l0.2,0.1c2,0.9,4.2,1.4,6.3,1.4c2.1,0,4.3-0.4,6.2-1.3l8.5-3.8L356.5,297.6z M350.9,289.5l0.3-0.1l-0.1,0.3
	c-1.7,6.2-7.6,8-7.6,8S345.2,291.6,350.9,289.5L350.9,289.5z M339.9,285.2l0.1-0.4l0.1,0.4c2.3,5.4-0.1,10.9-0.1,10.9
	S337.6,291.6,339.9,285.2z M331.3,310.6c1.5,1.4,2.1,3.6,1.7,5.7c-0.8,0.7-1.7,1.4-2.8,2.3c-0.4-1.6-1.3-3.1-2.6-4.3
	c-0.9-0.9-2-1.5-3.1-1.9c0.8-1.1,1.5-2.1,2.2-3C328.3,308.9,330,309.4,331.3,310.6L331.3,310.6z M306.7,337.5
	c6.2-8.8,11.3-16,15.2-21.5c1.1-0.1,2.4,0.3,3.4,1.2c1.2,1.1,1.8,2.7,1.6,4.1C322.1,325.2,315.7,330.4,306.7,337.5z M338.9,311
	c-0.1,0.2-0.6,0.7-2.2,2.1c-0.4-2.1-1.4-4.1-2.9-5.6c-1.2-1.1-2.7-1.9-4.2-2.2c0.7-0.9,1.2-1.6,1.4-1.9c0.9-1.2,2.2-1.9,3.6-2
	c0.1,0,0.3,0,0.4,0c1.3,0,2.5,0.5,3.5,1.4C340.6,305,340.8,308.6,338.9,311L338.9,311z M355,301.6c-3.1,1.4-6.7,1.4-9.7,0l-0.3-0.2
	c0,0,5.1-2.5,10.1-0.1l0.3,0.2L355,301.6z"/>
<path id="XMLID_22_" class="st1" d="M269.6,296.3c-1.6-0.7-3.2-1.2-4.9-1.3c4.1-5.1,6.1-13.9,6.1-13.9s-8.8,2.4-12.8,6.6
	c-0.1-1.8-0.5-3.6-1.2-5.3l-3.6-9.2l-3.5,9.2c-1.7,4.3-1.6,9.3,0,13.6l0.2,0.4c-0.8-0.2-1.6-0.2-2.5-0.2c-2.4,0.2-4.6,1.4-6.1,3.3
	c-1.7,2.2-14.8,20.7-25.5,35.9c-1.1,1.5-0.9,3.5,0.3,4.8c0.7,0.7,1.5,1.1,2.4,1.1c0.7,0,1.4-0.2,2-0.7c21.3-17,32.9-26.5,34.3-28.4
	c1.9-2.4,2.6-5.6,2-8.5l0.2,0.1c2,0.9,4.2,1.4,6.3,1.4c2.1,0,4.3-0.4,6.2-1.3l8.5-3.8L269.6,296.3z M264,288.2l0.3-0.1l-0.1,0.3
	c-1.7,6.2-7.6,8-7.6,8S258.3,290.3,264,288.2L264,288.2z M253.1,284l0.1-0.4l0.1,0.4c2.3,5.4-0.1,10.9-0.1,10.9
	S250.8,290.3,253.1,284z M244.4,309.3c1.5,1.4,2.1,3.6,1.7,5.7c-0.8,0.7-1.7,1.4-2.8,2.3c-0.4-1.6-1.3-3.1-2.6-4.3
	c-0.9-0.9-2-1.5-3.1-1.9c0.8-1.1,1.5-2.1,2.2-3C241.4,307.6,243.1,308.1,244.4,309.3L244.4,309.3z M219.9,336.2
	c6.2-8.8,11.3-16,15.2-21.5c1.1-0.1,2.4,0.3,3.4,1.2c1.2,1.1,1.8,2.7,1.6,4.1C235.3,323.9,228.8,329.1,219.9,336.2z M252,309.7
	c-0.1,0.2-0.6,0.7-2.2,2.1c-0.4-2.1-1.4-4.1-2.9-5.6c-1.2-1.1-2.7-1.9-4.2-2.2c0.7-0.9,1.2-1.6,1.4-1.9c0.9-1.2,2.2-1.9,3.6-2
	c0.1,0,0.3,0,0.4,0c1.3,0,2.5,0.5,3.5,1.4C253.7,303.7,253.9,307.3,252,309.7L252,309.7z M268.1,300.3c-3.1,1.4-6.7,1.4-9.7,0
	l-0.3-0.2c0,0,5.1-2.5,10.1-0.1l0.3,0.2L268.1,300.3z"/>
<path id="XMLID_31_" class="st1" d="M356.6,364.6c-1.6-0.7-3.2-1.2-4.9-1.3c4.1-5.1,6.1-13.9,6.1-13.9s-8.8,2.4-12.8,6.6
	c-0.1-1.8-0.5-3.6-1.2-5.3l-3.6-9.2l-3.5,9.2c-1.7,4.3-1.6,9.3,0,13.6l0.2,0.4c-0.8-0.2-1.6-0.2-2.5-0.2c-2.4,0.2-4.6,1.4-6.1,3.3
	c-1.7,2.2-14.8,20.7-25.5,35.9c-1.1,1.5-0.9,3.5,0.3,4.8c0.7,0.7,1.5,1.1,2.4,1.1c0.7,0,1.4-0.2,2-0.7c21.3-17,32.9-26.5,34.3-28.4
	c1.9-2.4,2.6-5.6,2-8.5l0.2,0.1c2,0.9,4.2,1.4,6.3,1.4c2.1,0,4.3-0.4,6.2-1.3l8.5-3.8L356.6,364.6z M351,356.5l0.3-0.1l-0.1,0.3
	c-1.7,6.2-7.6,8-7.6,8S345.3,358.5,351,356.5L351,356.5z M340,352.2l0.1-0.4l0.1,0.4c2.3,5.4-0.1,10.9-0.1,10.9
	S337.8,358.6,340,352.2z M331.4,377.6c1.5,1.4,2.1,3.6,1.7,5.7c-0.8,0.7-1.7,1.4-2.8,2.3c-0.4-1.6-1.3-3.1-2.6-4.3
	c-0.9-0.9-2-1.5-3.1-1.9c0.8-1.1,1.5-2.1,2.2-3C328.4,375.9,330.1,376.4,331.4,377.6L331.4,377.6z M306.8,404.5
	c6.2-8.8,11.3-16,15.2-21.5c1.1-0.1,2.4,0.3,3.4,1.2c1.2,1.1,1.8,2.7,1.6,4.1C322.2,392.2,315.8,397.4,306.8,404.5z M339,378
	c-0.1,0.2-0.6,0.7-2.2,2.1c-0.4-2.1-1.4-4.1-2.9-5.6c-1.2-1.1-2.7-1.9-4.2-2.2c0.7-0.9,1.2-1.6,1.4-1.9c0.9-1.2,2.2-1.9,3.6-2
	c0.1,0,0.3,0,0.4,0c1.3,0,2.5,0.5,3.5,1.4C340.7,372,340.9,375.6,339,378L339,378z M355.1,368.6c-3.1,1.4-6.7,1.4-9.7,0l-0.3-0.2
	c0,0,5.1-2.5,10.1-0.1l0.3,0.2L355.1,368.6z"/>
<path id="XMLID_39_" class="st1" d="M260.7,360.8c-1.6-0.7-3.2-1.2-4.9-1.3c4.1-5.1,6.1-13.9,6.1-13.9s-8.8,2.4-12.8,6.6
	c-0.1-1.8-0.5-3.6-1.2-5.3l-3.6-9.2l-3.5,9.2c-1.7,4.3-1.6,9.3,0,13.6l0.2,0.4c-0.8-0.2-1.6-0.2-2.5-0.2c-2.4,0.2-4.6,1.4-6.1,3.3
	c-1.7,2.2-14.8,20.7-25.5,35.9c-1.1,1.5-0.9,3.5,0.3,4.8c0.7,0.7,1.5,1.1,2.4,1.1c0.7,0,1.4-0.2,2-0.7c21.3-17,32.9-26.5,34.3-28.4
	c1.9-2.4,2.6-5.6,2-8.5l0.2,0.1c2,0.9,4.2,1.4,6.3,1.4c2.1,0,4.3-0.4,6.2-1.3l8.5-3.8L260.7,360.8z M255.1,352.7l0.3-0.1l-0.1,0.3
	c-1.7,6.2-7.6,8-7.6,8S249.4,354.8,255.1,352.7L255.1,352.7z M244.2,348.5l0.1-0.4l0.1,0.4c2.3,5.4-0.1,10.9-0.1,10.9
	S241.9,354.8,244.2,348.5z M235.5,373.8c1.5,1.4,2.1,3.6,1.7,5.7c-0.8,0.7-1.7,1.4-2.8,2.3c-0.4-1.6-1.3-3.1-2.6-4.3
	c-0.9-0.9-2-1.5-3.1-1.9c0.8-1.1,1.5-2.1,2.2-3C232.5,372.2,234.2,372.6,235.5,373.8L235.5,373.8z M211,400.8
	c6.2-8.8,11.3-16,15.2-21.5c1.1-0.1,2.4,0.3,3.4,1.2c1.2,1.1,1.8,2.7,1.6,4.1C226.4,388.4,219.9,393.6,211,400.8z M243.1,374.3
	c-0.1,0.2-0.6,0.7-2.2,2.1c-0.4-2.1-1.4-4.1-2.9-5.6c-1.2-1.1-2.7-1.9-4.2-2.2c0.7-0.9,1.2-1.6,1.4-1.9c0.9-1.2,2.2-1.9,3.6-2
	c0.1,0,0.3,0,0.4,0c1.3,0,2.5,0.5,3.5,1.4C244.8,368.2,245,371.9,243.1,374.3L243.1,374.3z M259.2,364.8c-3.1,1.4-6.7,1.4-9.7,0
	l-0.3-0.2c0,0,5.1-2.5,10.1-0.1l0.3,0.2L259.2,364.8z"/>
</svg>
