<?xml version="1.0" encoding="utf-8"?>
<!-- Generator: Adobe Illustrator 19.0.0, SVG Export Plug-In . SVG Version: 6.00 Build 0)  -->
<svg version="1.1" id="Layer_1" xmlns="http://www.w3.org/2000/svg" xmlns:xlink="http://www.w3.org/1999/xlink" x="0px" y="0px"
	 viewBox="0 0 612 792" style="enable-background:new 0 0 612 792;" xml:space="preserve">
<style type="text/css">
	.st0{fill:#56A646;}
</style>
<g id="XMLID_23_">
	<g id="XMLID_24_">
		<path id="XMLID_25_" class="st0" d="M543.2,458.3c-0.5-9.1-5.1-17.4-12.7-22.8c-12.2-8.8-29-7.8-40.1,2.2L423,498.6
			c0.4-13.4-8.7-25.2-22.3-28.6l-82.4-20.3c-14.4-3.6-29.6-3.1-43.7,1.4L217.7,469v-15.9c0-4.4-3.7-7.9-8.2-7.9h-76.3
			c-4.5,0-8.2,3.5-8.2,7.9v141.2c0,4.4,3.7,7.9,8.2,7.9h76.3c4.5,0,8.2-3.5,8.2-7.9V485.7l62-19.5c11.2-3.5,23.2-3.9,34.7-1.1
			l82.4,20.3c6.4,1.6,10.6,7.3,9.9,13.7c-0.7,6.6-6.3,11.6-13.2,11.6H336c-4.5,0-8.2,3.5-8.2,7.9s3.7,7.9,8.2,7.9h17.6
			c0.3,0,0.6,0.1,0.9,0.1H395c13.5,0,26.4-4.9,36.3-13.9l70.2-63.4c5.3-4.8,13.4-5.2,19.3-1c3.6,2.6,5.8,6.6,6.1,10.9
			c0.3,4.4-1.5,8.6-4.8,11.5L425.4,558c-6.7,6-15.4,9.3-24.5,9.3H274.3c-4.5,0-8.2,3.5-8.2,7.9s3.7,7.9,8.2,7.9h126.6
			c13.3,0,25.9-4.8,35.6-13.6l96.7-87.3C540.1,476.1,543.8,467.3,543.2,458.3z M201.3,586.4h-60V461.1h60V586.4L201.3,586.4z"/>
	</g>
</g>
<g id="XMLID_20_">
	<g id="XMLID_21_">
		<path id="XMLID_6_" class="st0" d="M247.2,569.7c-1.5-1.5-3.6-2.3-5.8-2.3s-4.3,0.8-5.8,2.3s-2.4,3.5-2.4,5.6s0.9,4.1,2.4,5.6
			s3.6,2.3,5.8,2.3c2.1,0,4.2-0.8,5.8-2.3c1.5-1.5,2.4-3.5,2.4-5.6C249.5,573.2,248.7,571.2,247.2,569.7z"/>
	</g>
</g>
<g id="XMLID_15_">
	<g id="XMLID_16_">
		<path id="XMLID_17_" class="st0" d="M334.1,196.5c-40.5,0-73.5,32-73.5,71.3c0,13.1,11,23.8,24.5,23.8s24.5-10.7,24.5-23.8
			c0-13.1,11-23.8,24.5-23.8s24.5,10.7,24.5,23.8s-11,23.8-24.5,23.8s-24.5,10.7-24.5,23.8v34.1c0,13.1,11,23.8,24.5,23.8
			s24.5-10.7,24.5-23.8v-14.4c29.2-10,49-36.8,49-67.2C407.7,228.5,374.7,196.5,334.1,196.5z M348.4,321.5c-3.6,0.9-6.1,4.1-6.1,7.7
			v20.2c0,4.4-3.7,7.9-8.2,7.9s-8.2-3.6-8.2-7.9v-34.1c0-4.4,3.7-7.9,8.2-7.9c22.5,0,40.8-17.8,40.8-39.6s-18.3-39.6-40.8-39.6
			s-40.8,17.8-40.8,39.6c0,4.4-3.7,7.9-8.2,7.9s-8.2-3.6-8.2-7.9c0-30.6,25.7-55.5,57.2-55.5s57.2,24.9,57.2,55.5
			C391.3,293.1,373.7,315.2,348.4,321.5z"/>
	</g>
</g>
<g id="XMLID_10_">
	<g id="XMLID_11_">
		<path id="XMLID_12_" class="st0" d="M351.5,398.5c-4.6-4.4-10.9-7-17.3-7c-6.5,0-12.8,2.5-17.3,7c-4.6,4.4-7.2,10.5-7.2,16.8
			s2.6,12.4,7.2,16.8s10.9,7,17.3,7c6.5,0,12.8-2.5,17.3-7c4.6-4.4,7.2-10.6,7.2-16.8C358.6,409.1,356,402.9,351.5,398.5z
			 M339.9,420.9c-1.5,1.5-3.7,2.3-5.8,2.3c-2.1,0-4.3-0.9-5.8-2.3s-2.4-3.5-2.4-5.6s0.9-4.1,2.4-5.6c1.5-1.4,3.6-2.3,5.8-2.3
			c2.1,0,4.3,0.9,5.8,2.3c1.5,1.5,2.4,3.5,2.4,5.6S341.4,419.5,339.9,420.9z"/>
	</g>
</g>
</svg>
