<?xml version="1.0" encoding="utf-8"?>
<!-- Generator: Adobe Illustrator 19.0.0, SVG Export Plug-In . SVG Version: 6.00 Build 0)  -->
<svg version="1.1" id="Layer_1" xmlns="http://www.w3.org/2000/svg" xmlns:xlink="http://www.w3.org/1999/xlink" x="0px" y="0px"
	 viewBox="0 0 612 792" style="enable-background:new 0 0 612 792;" xml:space="preserve">
<style type="text/css">
	.st0{fill:#FFFFFF;stroke:#55A635;stroke-width:7;stroke-miterlimit:10;}
	.st1{fill:#FDFEFD;}
	.st2{fill:#55A635;}
	.st3{fill:#56A646;}
</style>
<ellipse id="XMLID_1_" class="st0" cx="316.5" cy="428" rx="277.5" ry="283"/>
<path class="st1" d="M401,272c-0.5-0.6-0.9-1.2-1.3-1.8c-2.2-1.6-4.2-3.3-6.3-5C395.5,267.9,398.2,271,401,272z"/>
<path class="st1" d="M439.6,266.1c-10.7-4.9-21.2-11.6-27.3-20.8c-1.7,1.1-4,1.1-5.9-0.8c-2-2-4.1-4-6.2-6c0.3,0.7,0.7,1.3,1,2
	c2,3.9-1.3,8.3-5.6,7.3c-4.4-1-8-2.9-10.9-5.3c3.9,5.2,8.5,10,13.5,14.4c1.1-0.7,2.5-1.1,4.1-0.7c12.5,2.8,23.2,9.8,34.1,16.4
	C435.6,269.9,437.2,266.9,439.6,266.1z"/>
<path class="st1" d="M422.3,231c-1.5-2.4-3-4.9-4.3-7.4c-2.5-1.6-5-3.1-7.6-4.4C414.3,223.2,418.3,227.2,422.3,231z"/>
<path class="st1" d="M454.7,271.8c-2-0.6-4-1.3-6.1-2.1c3,1.9,6,3.8,8.8,5.8c-0.4-1.2-0.8-2.4-1.2-3.5
	C455.7,272,455.2,272,454.7,271.8z"/>
<path class="st1" d="M412.9,235.5c-3-2.9-5.9-5.9-8.9-8.8c0,0-0.1,0-0.1,0.1c2.8,3.1,5.6,6.1,8.3,9.2
	C412.4,235.8,412.7,235.6,412.9,235.5z"/>
<path class="st1" d="M412.4,278.6c-0.7,0.6-1.4,1.2-2.2,1.6c2.9,0.7,5.9,1.4,8.9,2C416.9,281.1,414.6,279.9,412.4,278.6z"/>
<path class="st1" d="M482.2,272.3c-0.1-0.6-0.3-1.3-0.4-1.9c-0.7-1.4-1.3-2.7-2-4.1c0.7,1.9,1.4,3.8,2.1,5.7
	C482,272.1,482.1,272.2,482.2,272.3z"/>
<path class="st1" d="M498,611.5c0.2,0.1,0.3,0.2,0.5,0.4c0.2-0.3,0.4-0.6,0.6-0.9c0.6-1.5,1.1-3,1.6-4.5
	C499.8,608.1,498.9,609.8,498,611.5z"/>
<path class="st1" d="M502.2,556.3c-0.5-1.8-0.9-3.7-1.3-5.5c-1-0.8-1.8-2.1-1.9-3.8c-0.1-2-0.2-4-0.3-6c-2.7-13.3-4.8-26.8-8-40
	c-9.5,34.8-7.7,71.9-7.2,108.4c2.4-5,5.4-9.8,9.1-13.8c0-0.4-0.1-0.8-0.1-1.3c0-5.7,2.8-11.3,5.5-16.1c2.5-4.4,5.3-8.8,8.6-12.7
	c0.9-2.1,1.9-4.1,2.8-6.1C506.9,560.7,503,559.7,502.2,556.3z"/>
<path class="st1" d="M171.9,582.4c0.4-0.6,0.7-1.2,1-1.9c-1.8-0.1-3.6-0.5-5.2-1.1c0.5,2.2,1,4.3,1.6,6.5
	C170.4,585,171.3,583.4,171.9,582.4z"/>
<path class="st1" d="M203.9,583c-0.7,1-1.5,2.1-2.3,3.3c0.2,0,0.4,0,0.5,0c1.8-2.1,3.4-4.3,5-6.6c-0.2-0.1-0.4-0.1-0.6-0.2
	C205.6,580.8,204.7,581.9,203.9,583z"/>
<path class="st1" d="M207.2,557c-1.3,1.7-2,3.8-1.9,6.2c0.1,1.2,0.3,2.3,0.6,3.2c0.1-0.1,0.2-0.2,0.4-0.3c-0.3-4,0.9-7.7,3.2-10.6
	C208.8,556,208,556.5,207.2,557z"/>
<path class="st1" d="M204.9,544c0.2-1.5,0-3.1-0.5-4.7c-1.6,1.4-3.4,2.6-5.4,3.7c1.6,0.9,3.3,1.5,5.2,1.8
	C204.4,544.5,204.7,544.2,204.9,544z"/>
<path class="st1" d="M196,567.8c-0.3-1-0.5-2-0.6-3c-0.9,0.5-1.8,0.9-2.8,1.3c-0.1,1.6-0.5,3.2-1.2,4.7c0.4,1,0.7,2,1,3.1
	c1.9-0.2,3.8-0.6,5.7-1.3C197.2,571.2,196.5,569.6,196,567.8z"/>
<path class="st1" d="M180.9,492.2c-1.1,1.8-1.2,3.5-0.3,4.6c3.4-2.5,7.8-4,12.6-4c0.5-0.6,1-1.2,1.5-1.8c1.2-1.5,2.4-3.4,3.4-5.4
	c-1.4-0.5-2.9-0.8-4.2-0.7C188.9,485,183.5,488,180.9,492.2z"/>
<path class="st1" d="M169,493L169,493c0.4,1,0.7,2,1,3c0-1,0-2.1,0.2-3.2C169.8,492.9,169.4,493,169,493z"/>
<path class="st1" d="M198.3,475.3c0.8,0.2,1.6,0.4,2.4,0.6c0-3.6-1.5-6.9-5.4-8.8c-2.2-1.1-4.4-1.3-6.4-0.8c0.3,3.1,0,6.4-0.8,9.5
	C191.4,474.8,194.9,474.6,198.3,475.3z"/>
<path class="st1" d="M173.3,459.7c-3.4-0.9-6.7,1.1-9.2,3.6c0.2,0,0.4-0.1,0.6-0.1c2.4-0.6,5.7,0.8,6.2,3.5c0.1,0.8,0.2,1.5,0.2,2.3
	c1.8-2.5,3.9-4.8,6.2-6.8C176.2,461,175,460.1,173.3,459.7z"/>
<path class="st2" d="M172.2,457.9c31.2-0.2,61.1,4.2,87.4,20.8c16.8,10.6,36,12.2,55.8,12c8.2-0.1,16.5,0.1,24.6,1.2
	c16.2,2.2,28.9,9.6,36.7,22.8c1.5,2.6,2.4,6.1,1.8,8.8c-0.4,1.8-3.9,4.4-5.9,4.4c-8.4-0.1-16.7-1.6-25.1-1.7
	c-19.2-0.3-38.4-0.1-57.6,0.1c-17.3,0.2-31.1,11.9-30.5,25.5c0.2,4.4,2.2,7.4,7.1,8.1c5.2,0.8,8.5-1.3,10.2-5.9
	c3.8-10.4,6.3-12,18.5-12.1c4.7,0,9.4,0.6,14.1,0.9c1.2,0.9,2.3,2.5,3.5,2.6c8.2,0.3,16.5,0.5,24.7,0.3c2.2-0.1,4.3-1.8,6.4-2.8
	c6.4,0,12.8,0.1,19.2,0.1c2.1-0.2,4.3-0.3,6.4-0.5c7.9-9.5,19.6-5.8,29.6-6c20.1-0.4,38.1-4.9,55-14.7c17.2-9.9,35.2-18.7,53.2-27.5
	c6.3-3,13.4-4.9,20.4-6.2c8.9-1.7,17.7,4.1,19.8,11.9c1.5,5.6-1.5,9.3-6.3,12.5c-29.6,19.8-59,39.9-88.7,59.5
	c-34.2,22.6-21.6,19.9-66.6,24.5c-32.7,3.4-65.3,7.4-98,11.1c-2,0.2-4,0.1-6,0.1c-3-0.7-5.9-1.9-8.9-2c-34.7-0.5-69.5-0.9-104.2-1.2
	c0.2-28,0.3-56,0.6-84c0.2-20.4,0.7-40.8,1-61.1C171.1,458.8,171.7,458.3,172.2,457.9z"/>
<path class="st2" d="M368.2,376.9c15.5-0.7,25.4,5.9,29,19.1c2.2,8.3,4.5,9.1,13.7,7.6c4-0.6,10.9-0.4,12,1.6
	c1.9,3.3,0.9,8.3,0,12.5c-0.7,3.4-3.9,6.3-4.5,9.7c-1.1,5.8,1.1,7.2,7.6,6.1c2.9-0.5,5.9-1.1,8.9-0.9c11.9,0.6,16.5,9.1,9.9,17.9
	c-5.8,7.9-5.8,7.9,3.7,12c7.9,3.4,12.6,8.7,13.1,16.6c0.3,4.2,1.8,7.1,6.7,8.5c7.7,2.2,12.3,7.4,14.5,15.5
	c-24.4,10-44.1,29.4-73.8,29.2c-7.9-0.6-15.8-1-23.7-1.7c-1.7-0.2-3.3-1.1-5-1.7c4.2-5.2,3.3-10.4,0-15.7
	c-9.8-15.6-25-23.6-44.4-25.1c-15.4-1.2-31-0.7-46.3-2.4c-8.2-0.9-16.3-4.2-23.8-7.5c-12.4-5.6-24.3-12.1-38.1-19.1
	c1.8-3.9,3.8-9.3,6.9-14.2c3.3-5.3,8.9-6.6,15.6-4.9c2.2,0.6,4.9-0.4,7.4-0.7c-0.5-2.2-1-4.4-1.5-6.6c-1.1-4.4-3.6-9-3.1-13.3
	c0.9-7.6,8.6-11,16.9-8.4c3.7,1.2,7.1,3.2,10.7,4.8c5.5,2.4,7.8,1.2,8.2-4.4c0.2-2.9,0.1-5.8,0-8.7c-0.3-6.5,3.5-10.1,10.4-10.5
	c6.2-0.3,8.4-3.2,10.1-8c5.3-14.8,17.9-15.4,31.3-12.7c4.9,1,7.5,4,7.3,9.4c-0.5,11.8,0.1,23.7,0,35.6c0,5.1,0.8,9.9,7.5,10.6
	c6.6,0.7,9-3.6,10.3-8.6c0.8-2.2,2.3-4.3,2.4-6.5C368.1,400.4,368.1,388.6,368.2,376.9z"/>
<path class="st2" d="M166.3,453.7c-0.1,0.5-0.1,0.9-0.2,1.4c-1,1.8-2.7,3.5-2.7,5.3c-0.7,48-1.2,96-1.6,144c0,1.8,1.7,3.6,2.6,5.3
	c1.6,16.3,1.6,16.3-15.9,16.1c-4.7-0.1-9.4-0.2-14.1-0.3c0.6-56,1.2-112,1.8-168c0.2-17.6,0.2-17.3,19.6-17.5
	c6.9-0.1,10.4,1.3,9.3,8.1C164.7,449.9,165.8,451.8,166.3,453.7z"/>
<path class="st2" d="M317.7,268.7c-1.3,40.1-27.2,63.3-62,68.1c-8.4,1.2-16.8,2.2-25.2,3c-7.4,0.7-9.1-1-8-7.4
	c1.3-7.5,2.1-15.1,3.9-22.5c6.8-28.7,27.9-46.6,60.2-51.3c5.6-0.8,11.3-1.5,19.2-2.5c-4.2,3.8-7,6.4-9.8,8.9
	c-4.8,4.2-9.7,8.4-14.5,12.6c-4.3,3.7-7.2,7.7-2.2,12.7c3.8,3.7,9.1,3.3,14.4-1.1c6.2-5.2,12.2-10.5,18.4-15.8
	C313.7,271.9,315.5,270.5,317.7,268.7z"/>
<path class="st2" d="M351.5,400.6c0.2-21.6,0.4-43.3,0.4-64.9c0-13.8,0.1-27.7-0.7-41.5c-1-16.6-19.8-30.9-36.4-28.3
	c-5.7,0.5-8.9,3.4-9.8,8.4c-5,4.3-9.9,8.5-14.9,12.8c-2.9,0-5.7,0-8.6-0.1c0.6-2.3,0.4-5.3,2-6.7c8.7-8,17.6-15.9,26.9-23.3
	c2.2-1.7,6.4-2.2,9.5-1.8c24.4,2.7,42.8,21.1,42.7,43.3c-0.1,38.9-0.7,77.9-1.4,116.8c0,2.7-2.7,5.4-4.2,8.2
	c-1.1-0.1-2.2-0.2-3.3-0.3c-0.4,0.1-0.7-0.1-0.9-0.4c-0.5-1.6-1.1-3.1-1.6-4.7c0.1-5.4,0.1-10.8,0.2-16.2c0.2-0.1,0.5-0.3,0.5-0.4
	C351.9,401.2,351.7,400.9,351.5,400.6z"/>
<path class="st3" d="M166.3,453.7c-0.5-1.9-1.6-3.9-1.3-5.7c1.1-6.8-2.3-8.2-9.3-8.1c-19.4,0.2-19.4-0.1-19.6,17.5
	c-0.6,56-1.2,112-1.8,168c-0.9-1.4-2.6-2.8-2.6-4.3c0.5-59.5,1.2-119,1.8-178.5c0-4.1,1.4-5.5,6-5.3c8.7,0.4,17.4,0.3,26.9,0.4
	C166.4,443.3,166.3,448.5,166.3,453.7z"/>
<path class="st3" d="M164.4,609.7c-0.9-1.8-2.7-3.6-2.6-5.3c0.4-48,0.9-96,1.6-144c0-1.8,1.8-3.5,2.7-5.3
	C165.5,506.6,164.9,558.2,164.4,609.7z"/>
<path class="st3" d="M168.9,604.4c34.7,0.4,69.5,0.7,104.2,1.2c3,0,5.9,1.3,8.9,2c-29.2-0.1-58.3-0.2-87.5-0.4c-8,0-16-0.3-23.9-0.5
	c-0.6-0.3-1.1-0.6-1.7-0.9C169,605.3,168.9,604.8,168.9,604.4z"/>
<path class="st3" d="M368.2,376.9c-0.1,11.8-0.1,23.5-0.5,35.3c-0.1,2.2-1.5,4.3-2.4,6.5c0-12.7,0-25.4,0.2-38.1
	C365.6,379.3,367.3,378.1,368.2,376.9z"/>
<path class="st3" d="M344,542.8c-2.1,1-4.2,2.7-6.4,2.8c-8.2,0.2-16.5,0.1-24.7-0.3c-1.2,0-2.4-1.7-3.5-2.6
	C320.9,542.7,332.5,542.8,344,542.8z"/>
<path class="st3" d="M380.1,528.9c1.7,0.6,3.3,1.5,5,1.7c7.9,0.7,15.8,1.2,23.7,1.7c-10.8,0.4-21.6,0.8-32.4,1.2
	c-0.2-0.5-0.3-1-0.5-1.4C377.4,531,378.7,529.9,380.1,528.9z"/>
<path class="st3" d="M305,274.3c1-5,4.1-7.9,9.8-8.4C311.6,268.7,308.3,271.5,305,274.3z"/>
<path class="st3" d="M281.6,287c2.9,0,5.7,0,8.6,0.1C287.3,290.1,284.4,290.6,281.6,287z"/>
<path class="st3" d="M369.6,542.4c-2.1,0.2-4.3,0.3-6.4,0.5C365.3,542.7,367.5,542.6,369.6,542.4z"/>
<path class="st3" d="M351.4,418.1c0.5,1.6,1.1,3.1,1.6,4.7C352.5,421.2,351.9,419.7,351.4,418.1z"/>
<path class="st3" d="M353.9,423.2c1.1,0.1,2.2,0.2,3.3,0.3C356.1,423.4,355,423.3,353.9,423.2z"/>
<path class="st3" d="M351.5,400.6c0.2,0.3,0.4,0.6,0.6,0.9c0,0.1-0.3,0.3-0.5,0.4C351.6,401.5,351.5,401.1,351.5,400.6z"/>
<path class="st3" d="M172.2,457.9c-0.6,0.4-1.1,0.9-1.7,1.3C171.1,458.8,171.7,458.3,172.2,457.9z"/>
<path class="st3" d="M169,605.8c0.6,0.3,1.1,0.6,1.7,0.9C170.1,606.4,169.5,606.1,169,605.8z"/>
</svg>
