<?xml version="1.0" encoding="utf-8"?>
<!-- Generator: Adobe Illustrator 19.0.0, SVG Export Plug-In . SVG Version: 6.00 Build 0)  -->
<svg version="1.1" id="Layer_1" xmlns="http://www.w3.org/2000/svg" xmlns:xlink="http://www.w3.org/1999/xlink" x="0px" y="0px"
	 viewBox="0 0 612 792" style="enable-background:new 0 0 612 792;" xml:space="preserve">
<style type="text/css">
	.st0{fill:#FFFFFF;stroke:#55A635;stroke-width:7;stroke-miterlimit:10;}
	.st1{fill:#FDFEFD;}
	.st2{fill:#56A646;}
	.st3{fill:#55A635;}
	.st4{fill:#F7F9F7;}
	.st5{fill:#FAFCFA;}
	.st6{fill:#FFFFFF;}
	.st7{fill:#F9F9F9;}
</style>
<ellipse id="XMLID_1_" class="st0" cx="316.5" cy="428" rx="277.5" ry="283"/>
<path class="st1" d="M401,272c-0.5-0.6-0.9-1.2-1.3-1.8c-2.2-1.6-4.2-3.3-6.3-5C395.5,267.9,398.2,271,401,272z"/>
<path class="st1" d="M439.6,266.1c-10.7-4.9-21.2-11.6-27.3-20.8c-1.7,1.1-4,1.1-5.9-0.8c-2-2-4.1-4-6.2-6c0.3,0.7,0.7,1.3,1,2
	c2,3.9-1.3,8.3-5.6,7.3c-4.4-1-8-2.9-10.9-5.3c3.9,5.2,8.5,10,13.5,14.4c1.1-0.7,2.5-1.1,4.1-0.7c12.5,2.8,23.2,9.8,34.1,16.4
	C435.6,269.9,437.2,266.9,439.6,266.1z"/>
<path class="st1" d="M422.3,231c-1.5-2.4-3-4.9-4.3-7.4c-2.5-1.6-5-3.1-7.6-4.4C414.3,223.2,418.3,227.2,422.3,231z"/>
<path class="st1" d="M454.7,271.8c-2-0.6-4-1.3-6.1-2.1c3,1.9,6,3.8,8.8,5.8c-0.4-1.2-0.8-2.4-1.2-3.5
	C455.7,272,455.2,272,454.7,271.8z"/>
<path class="st1" d="M412.9,235.5c-3-2.9-5.9-5.9-8.9-8.8c0,0-0.1,0-0.1,0.1c2.8,3.1,5.6,6.1,8.3,9.2
	C412.4,235.8,412.7,235.6,412.9,235.5z"/>
<path class="st1" d="M412.4,278.6c-0.7,0.6-1.4,1.2-2.2,1.6c2.9,0.7,5.9,1.4,8.9,2C416.9,281.1,414.6,279.9,412.4,278.6z"/>
<path class="st1" d="M482.2,272.3c-0.1-0.6-0.3-1.3-0.4-1.9c-0.7-1.4-1.3-2.7-2-4.1c0.7,1.9,1.4,3.8,2.1,5.7
	C482,272.1,482.1,272.2,482.2,272.3z"/>
<path class="st1" d="M498,611.5c0.2,0.1,0.3,0.2,0.5,0.4c0.2-0.3,0.4-0.6,0.6-0.9c0.6-1.5,1.1-3,1.6-4.5
	C499.8,608.1,498.9,609.8,498,611.5z"/>
<path class="st1" d="M502.2,556.3c-0.5-1.8-0.9-3.7-1.3-5.5c-1-0.8-1.8-2.1-1.9-3.8c-0.1-2-0.2-4-0.3-6c-2.7-13.3-4.8-26.8-8-40
	c-9.5,34.8-7.7,71.9-7.2,108.4c2.4-5,5.4-9.8,9.1-13.8c0-0.4-0.1-0.8-0.1-1.3c0-5.7,2.8-11.3,5.5-16.1c2.5-4.4,5.3-8.8,8.6-12.7
	c0.9-2.1,1.9-4.1,2.8-6.1C506.9,560.7,503,559.7,502.2,556.3z"/>
<path class="st1" d="M171.9,582.4c0.4-0.6,0.7-1.2,1-1.9c-1.8-0.1-3.6-0.5-5.2-1.1c0.5,2.2,1,4.3,1.6,6.5
	C170.4,585,171.3,583.4,171.9,582.4z"/>
<path class="st1" d="M203.9,583c-0.7,1-1.5,2.1-2.3,3.3c0.2,0,0.4,0,0.5,0c1.8-2.1,3.4-4.3,5-6.6c-0.2-0.1-0.4-0.1-0.6-0.2
	C205.6,580.8,204.7,581.9,203.9,583z"/>
<path class="st1" d="M207.2,557c-1.3,1.7-2,3.8-1.9,6.2c0.1,1.2,0.3,2.3,0.6,3.2c0.1-0.1,0.2-0.2,0.4-0.3c-0.3-4,0.9-7.7,3.2-10.6
	C208.8,556,208,556.5,207.2,557z"/>
<path class="st1" d="M204.9,544c0.2-1.5,0-3.1-0.5-4.7c-1.6,1.4-3.4,2.6-5.4,3.7c1.6,0.9,3.3,1.5,5.2,1.8
	C204.4,544.5,204.7,544.2,204.9,544z"/>
<path class="st1" d="M196,567.8c-0.3-1-0.5-2-0.6-3c-0.9,0.5-1.8,0.9-2.8,1.3c-0.1,1.6-0.5,3.2-1.2,4.7c0.4,1,0.7,2,1,3.1
	c1.9-0.2,3.8-0.6,5.7-1.3C197.2,571.2,196.5,569.6,196,567.8z"/>
<path class="st1" d="M180.9,492.2c-1.1,1.8-1.2,3.5-0.3,4.6c3.4-2.5,7.8-4,12.6-4c0.5-0.6,1-1.2,1.5-1.8c1.2-1.5,2.4-3.4,3.4-5.4
	c-1.4-0.5-2.9-0.8-4.2-0.7C188.9,485,183.5,488,180.9,492.2z"/>
<path class="st1" d="M169,493L169,493c0.4,1,0.7,2,1,3c0-1,0-2.1,0.2-3.2C169.8,492.9,169.4,493,169,493z"/>
<path class="st1" d="M198.3,475.3c0.8,0.2,1.6,0.4,2.4,0.6c0-3.6-1.5-6.9-5.4-8.8c-2.2-1.1-4.4-1.3-6.4-0.8c0.3,3.1,0,6.4-0.8,9.5
	C191.4,474.8,194.9,474.6,198.3,475.3z"/>
<path class="st1" d="M173.3,459.7c-3.4-0.9-6.7,1.1-9.2,3.6c0.2,0,0.4-0.1,0.6-0.1c2.4-0.6,5.7,0.8,6.2,3.5c0.1,0.8,0.2,1.5,0.2,2.3
	c1.8-2.5,3.9-4.8,6.2-6.8C176.2,461,175,460.1,173.3,459.7z"/>
<path class="st2" d="M369.6,542.4c-2.1,0.2-4.3,0.3-6.4,0.5C365.3,542.7,367.5,542.6,369.6,542.4z"/>
<path class="st2" d="M351.4,418.1c0.5,1.6,1.1,3.1,1.6,4.7C352.5,421.2,351.9,419.7,351.4,418.1z"/>
<path class="st2" d="M353.9,423.2c1.1,0.1,2.2,0.2,3.3,0.3C356.1,423.4,355,423.3,353.9,423.2z"/>
<path class="st2" d="M351.5,400.6c0.2,0.3,0.4,0.6,0.6,0.9c0,0.1-0.3,0.3-0.5,0.4C351.6,401.5,351.5,401.1,351.5,400.6z"/>
<path class="st2" d="M172.2,457.9c-0.6,0.4-1.1,0.9-1.7,1.3C171.1,458.8,171.7,458.3,172.2,457.9z"/>
<path class="st2" d="M169,605.8c0.6,0.3,1.1,0.6,1.7,0.9C170.1,606.4,169.5,606.1,169,605.8z"/>
<path class="st3" d="M370.7,549.7c7.5-10.1,18.9-6.3,28.6-6.7c19.4-0.7,36.8-5.6,53.1-16.1c16.5-10.7,33.9-20.1,51.2-29.5
	c6-3.3,12.9-5.3,19.7-6.8c8.6-1.9,17.2,4.1,19.3,12.3c1.5,5.9-1.4,9.8-6,13.2c-28.5,21.2-56.7,42.6-85.3,63.6
	c-32.8,24.1-20.7,21.1-64.2,26.5c-31.6,3.9-63.2,8.5-94.8,12.8c-1.9,0.3-3.9,0.1-5.8,0.2c-2.9-0.7-5.8-1.9-8.7-2
	c-33.6-0.1-67.3-0.1-100.9-0.1c-0.1-29.5-0.3-58.9-0.3-88.4c0-21.4,0.2-42.9,0.4-64.3c0.5-0.5,1.1-0.9,1.6-1.4
	c30.2-0.5,59.2,3.8,84.9,20.9c16.4,10.9,35,12.4,54.2,12c7.9-0.2,16-0.1,23.8,0.9c15.7,2.1,28.1,9.8,35.8,23.6
	c1.5,2.7,2.4,6.3,1.9,9.3c-0.3,1.9-3.7,4.7-5.7,4.7c-8.1,0-16.2-1.5-24.3-1.5c-18.6-0.1-37.2,0.3-55.8,0.7
	c-16.8,0.4-30,12.9-29.3,27.1c0.2,4.7,2.2,7.7,7,8.4c5,0.8,8.2-1.5,9.8-6.3c3.6-11,6-12.7,17.8-12.9c4.6-0.1,9.1,0.5,13.7,0.8
	c1.1,0.9,2.3,2.6,3.4,2.7c8,0.2,16,0.3,23.9,0c2.1-0.1,4.1-1.9,6.2-3c6.2,0,12.4-0.1,18.6-0.1C366.5,550.1,368.6,549.9,370.7,549.7z
	"/>
<path class="st3" d="M367.5,375.7c15-0.9,24.7,5.9,28.3,19.8c2.3,8.7,4.4,9.5,13.3,7.9c3.8-0.7,10.5-0.5,11.7,1.5
	c1.9,3.5,1,8.8,0.2,13.1c-0.7,3.6-3.7,6.7-4.3,10.2c-1,6.1,1.2,7.5,7.4,6.3c2.8-0.5,5.7-1.2,8.6-1.1c11.5,0.5,16,9.3,9.8,18.7
	c-5.6,8.3-5.6,8.4,3.7,12.6c7.7,3.5,12.3,9,12.9,17.4c0.3,4.4,1.8,7.4,6.6,8.8c7.5,2.2,11.9,7.7,14.2,16.1
	c-23.6,10.8-42.4,31.5-71.3,31.6c-7.7-0.5-15.4-0.9-23-1.6c-1.7-0.1-3.2-1.1-4.9-1.7c4-5.6,3.1-11-0.2-16.5
	c-9.6-16.3-24.5-24.5-43.2-25.8c-14.9-1.1-30-0.4-44.9-1.9c-7.9-0.8-15.8-4.2-23.1-7.6c-12.1-5.7-23.7-12.5-37-19.6
	c1.7-4.1,3.5-9.8,6.5-15c3.2-5.6,8.5-7.1,15-5.3c2.1,0.6,4.7-0.5,7.1-0.8c-0.5-2.3-1-4.6-1.5-6.9c-1.1-4.6-3.6-9.4-3.2-13.9
	c0.8-8,8.2-11.7,16.3-9c3.6,1.2,6.9,3.3,10.4,4.9c5.3,2.4,7.5,1.2,7.9-4.7c0.2-3,0.1-6.1-0.1-9.2c-0.3-6.8,3.3-10.7,10-11.1
	c6-0.4,8.1-3.5,9.7-8.5c5-15.6,17.2-16.4,30.2-13.7c4.8,1,7.3,4.1,7.1,9.8c-0.4,12.5,0.3,24.9,0.4,37.4c0,5.4,0.8,10.4,7.3,11.1
	c6.4,0.7,8.7-3.9,9.9-9.1c0.8-2.3,2.2-4.5,2.2-6.8C367.7,400.4,367.5,388,367.5,375.7z M344,395.7c-4.2-2.9-6.8-6-9.1-5.8
	c-2.4,0.2-4.4,3.7-6.6,5.7c2.3,2.2,4.3,5.7,6.9,6.2C337.2,402.2,339.9,398.7,344,395.7z M331,425.8c-4.1-3-6.8-6.5-8.8-6.1
	c-2.6,0.5-4.7,4-6.9,6.2c2.2,2.1,4.3,5.5,6.6,5.8C324.1,431.8,326.8,428.6,331,425.8z M406.5,425.5c-4.2-2.9-6.8-6-9.1-5.8
	c-2.4,0.2-4.5,3.7-6.7,5.7c2.3,2.2,4.3,5.7,6.9,6.2C399.7,431.9,402.4,428.4,406.5,425.5z M373.8,458.6c3.2-3.9,6.8-6.5,6.4-8.5
	c-0.5-2.6-4-4.6-6.2-6.9c-2.1,2.1-5.7,4.1-6,6.4C367.7,451.8,370.9,454.4,373.8,458.6z M306.2,456.3c-4.3-2.8-7.2-6.1-9.2-5.6
	c-2.6,0.6-4.4,4.3-6.5,6.6c2.3,1.9,4.6,5.2,7,5.3C299.8,462.7,302.2,459.4,306.2,456.3z M265.3,454.8c-3.1,4-6.7,6.6-6.3,8.6
	c0.5,2.5,4.1,4.5,6.3,6.8c2.1-2.1,5.7-4.1,5.9-6.5C271.5,461.5,268.2,458.9,265.3,454.8z M351.3,464.3c-4-3.1-6.6-6.7-8.6-6.4
	c-2.6,0.4-4.8,3.8-7.2,5.9c2.1,2.1,4.1,5.7,6.4,6C344.3,470,347,467,351.3,464.3z M410.1,472.7c3.2-3.9,6.8-6.5,6.4-8.5
	c-0.5-2.6-4-4.6-6.2-6.9c-2.1,2.1-5.7,4.1-6,6.4S407.2,468.6,410.1,472.7z M380.8,498.2c3.2-3.9,6.7-6.2,6.6-8.4
	c-0.1-2.3-3.5-4.6-5.4-6.9c-2.4,2.1-6.1,3.8-6.8,6.3C374.7,491.1,378.1,494,380.8,498.2z M426.9,502.2c-4.1-3-6.8-6.5-8.7-6.2
	c-2.6,0.5-4.7,3.9-7,6.1c2.2,2.1,4.2,5.6,6.6,5.8C420,508.2,422.6,505,426.9,502.2z"/>
<path class="st3" d="M172.8,458.8c-0.1,0.5-0.1,1-0.2,1.4c-0.9,1.9-2.6,3.7-2.6,5.6c-0.1,50.5-0.1,101,0,151.4
	c0,1.9,1.7,3.7,2.6,5.6c1.7,17.1,1.7,17.1-15.2,17.1c-4.5,0-9.1-0.1-13.6-0.2c0-58.9-0.1-117.8-0.1-176.8c0-18.5,0-18.2,18.8-18.6
	c6.7-0.1,10,1.3,9.1,8.4C171.3,454.8,172.4,456.8,172.8,458.8z"/>
<path class="st3" d="M317.7,262.1c-0.9,42.2-25.4,68.8-66.9,73.8c-6.2,0.8-12.4,1.8-18.7,2.5c-4.5,0.5-7.2-1.3-6.6-6
	c1.3-9.5,2.1-19.3,4.5-28.5c7.3-28.5,26-46,55.9-51.5c2.8-0.5,5.7-1,8.6-1.4c3.1-0.4,6.1-0.8,11.3-1.5c-6.5,6.3-11.7,11.4-16.9,16.4
	c-2.7,2.7-5.6,5.2-8.2,8c-3.6,3.8-4.4,8-0.2,11.8c4,3.6,8.5,3.4,12.4-0.2c6.9-6.3,13.5-12.8,20.2-19.3
	C314.3,265.1,315.5,264.1,317.7,262.1z"/>
<path class="st3" d="M305.2,268.5c-4.8,4.6-9.5,9.1-14.3,13.7c-2.8,0-5.5,0-8.3,0c0.6-2.4,0.4-5.5,1.9-7.1
	c8.3-8.5,16.9-16.9,25.8-24.8c2.1-1.8,6.2-2.4,9.2-2c23.6,2.6,41.7,21.7,41.8,45c0.3,41,0.2,81.9-0.1,122.9c0,2.9-2.6,5.8-4,8.6
	c-1.1-0.1-2.1-0.2-3.2-0.3c-0.4,0.1-0.7-0.1-0.8-0.5c-0.5-1.6-1.1-3.3-1.6-4.9c0-5.7,0-11.3,0-17c0.2-0.1,0.5-0.4,0.5-0.4
	c-0.1-0.3-0.4-0.7-0.6-1c-0.1-22.8,0-45.5-0.3-68.3c-0.1-14.5-0.2-29.1-1.1-43.6c-1.1-17.4-19.5-32.2-35.6-29.3
	C309.1,260.1,306.1,263.3,305.2,268.5z"/>
<path class="st2" d="M172.8,458.8c-0.5-2-1.5-4.1-1.3-5.9c1-7.1-2.3-8.6-9.1-8.4c-18.8,0.4-18.8,0.1-18.8,18.6
	c0,58.9,0.1,117.8,0.1,176.8c-0.9-1.5-2.6-3-2.6-4.4c-0.1-62.6-0.1-125.2-0.2-187.8c0-4.3,1.3-5.8,5.8-5.7
	c8.4,0.3,16.9,0.1,26.1,0.1C172.8,447.8,172.8,453.3,172.8,458.8z"/>
<path class="st2" d="M172.6,622.9c-0.9-1.9-2.6-3.7-2.6-5.6c-0.1-50.5-0.1-101,0-151.4c0-1.9,1.7-3.7,2.6-5.6
	C172.6,514.5,172.6,568.7,172.6,622.9z"/>
<path class="st2" d="M177,617.2c33.6,0,67.3,0,100.9,0.1c2.9,0,5.8,1.3,8.7,2c-28.2,0.2-56.5,0.5-84.7,0.6c-7.7,0-15.5-0.2-23.2-0.3
	c-0.5-0.3-1.1-0.6-1.6-1C177,618.2,177,617.7,177,617.2z"/>
<path class="st2" d="M367.5,375.7c0,12.4,0.1,24.8-0.1,37.1c0,2.3-1.4,4.6-2.2,6.8c-0.1-13.4-0.3-26.7-0.2-40.1
	C365.1,378.2,366.7,376.9,367.5,375.7z"/>
<path class="st2" d="M345.8,550.4c-2.1,1-4.1,2.9-6.2,3c-8,0.4-15.9,0.3-23.9,0c-1.2,0-2.3-1.7-3.4-2.7
	C323.5,550.7,334.7,550.6,345.8,550.4z"/>
<path class="st2" d="M380.7,535.4c1.6,0.6,3.2,1.6,4.9,1.7c7.7,0.6,15.3,1.1,23,1.6c-10.4,0.5-20.9,1.1-31.3,1.6
	c-0.2-0.5-0.3-1-0.5-1.5C378,537.6,379.4,536.5,380.7,535.4z"/>
<path class="st2" d="M305.2,268.5c0.9-5.2,3.9-8.4,9.4-8.9C311.5,262.6,308.4,265.5,305.2,268.5z"/>
<path class="st2" d="M282.7,282.2c2.8,0,5.5,0,8.3,0C288.2,285.3,285.5,285.9,282.7,282.2z"/>
<path class="st2" d="M370.7,549.7c-2.1,0.2-4.2,0.4-6.2,0.6C366.5,550.1,368.6,549.9,370.7,549.7z"/>
<path class="st2" d="M351.7,419.2c0.5,1.6,1.1,3.3,1.6,4.9C352.8,422.5,352.2,420.9,351.7,419.2z"/>
<path class="st2" d="M354.1,424.6c1.1,0.1,2.1,0.2,3.2,0.3C356.3,424.8,355.2,424.7,354.1,424.6z"/>
<path class="st2" d="M351.6,400.8c0.2,0.3,0.4,0.6,0.6,1c0,0.1-0.3,0.3-0.5,0.4C351.7,401.8,351.6,401.3,351.6,400.8z"/>
<path class="st2" d="M178.6,463.1c-0.5,0.5-1.1,0.9-1.6,1.4C177.5,464.1,178.1,463.6,178.6,463.1z"/>
<path class="st2" d="M177,618.7c0.5,0.3,1.1,0.6,1.6,1C178.1,619.3,177.6,619,177,618.7z"/>
<path class="st4" d="M344,395.7c-4.1,3-6.8,6.5-8.8,6.1c-2.6-0.5-4.6-4-6.9-6.2c2.2-2.1,4.3-5.5,6.6-5.7
	C337.2,389.7,339.8,392.9,344,395.7z"/>
<path class="st5" d="M331,425.8c-4.2,2.9-6.8,6-9.1,5.8c-2.4-0.2-4.4-3.7-6.6-5.8c2.3-2.2,4.3-5.7,6.9-6.2
	C324.1,419.3,326.9,422.8,331,425.8z"/>
<path class="st6" d="M406.5,425.5c-4.1,3-6.8,6.5-8.8,6.1c-2.6-0.5-4.6-4-6.9-6.2c2.2-2,4.3-5.5,6.7-5.7
	C399.7,419.4,402.3,422.6,406.5,425.5z"/>
<path class="st6" d="M373.8,458.6c-2.9-4.1-6.1-6.7-5.8-8.9c0.3-2.3,3.9-4.3,6-6.4c2.2,2.3,5.8,4.3,6.2,6.9
	C380.5,452,376.9,454.6,373.8,458.6z"/>
<path class="st6" d="M306.2,456.3c-4,3.1-6.4,6.4-8.7,6.3c-2.4-0.1-4.7-3.4-7-5.3c2.1-2.3,3.9-5.9,6.5-6.6
	C299,450.3,302,453.6,306.2,456.3z"/>
<path class="st7" d="M265.3,454.8c2.9,4.1,6.2,6.6,6,8.9s-3.8,4.3-5.9,6.5c-2.3-2.2-5.8-4.2-6.3-6.8
	C258.6,461.5,262.2,458.8,265.3,454.8z"/>
<path class="st7" d="M351.3,464.3c-4.3,2.7-7,5.8-9.3,5.5c-2.4-0.3-4.3-3.8-6.4-6c2.4-2.1,4.5-5.5,7.2-5.9
	C344.7,457.6,347.3,461.1,351.3,464.3z"/>
<path class="st6" d="M410.1,472.7c-2.9-4.1-6.1-6.7-5.8-8.9c0.3-2.3,3.9-4.3,6-6.4c2.2,2.3,5.8,4.3,6.2,6.9
	C416.9,466.2,413.2,468.8,410.1,472.7z"/>
<path class="st6" d="M380.8,498.2c-2.8-4.2-6.1-7.1-5.6-9c0.7-2.5,4.4-4.2,6.8-6.3c1.9,2.3,5.3,4.5,5.4,6.9
	C387.5,492,384.1,494.3,380.8,498.2z"/>
<path class="st4" d="M426.9,502.2c-4.2,2.8-6.9,6-9.1,5.7c-2.4-0.2-4.4-3.7-6.6-5.8c2.3-2.2,4.4-5.6,7-6.1
	C420.1,495.7,422.8,499.2,426.9,502.2z"/>
</svg>
