<?xml version="1.0" encoding="utf-8"?>
<!-- Generator: Adobe Illustrator 19.0.0, SVG Export Plug-In . SVG Version: 6.00 Build 0)  -->
<svg version="1.1" id="Layer_1" xmlns="http://www.w3.org/2000/svg" xmlns:xlink="http://www.w3.org/1999/xlink" x="0px" y="0px"
	 viewBox="0 0 612 792" style="enable-background:new 0 0 612 792;" xml:space="preserve">
<style type="text/css">
	.st0{fill:#55A635;stroke:#FFFFFF;stroke-width:6;stroke-miterlimit:10;}
	.st1{fill:#55A635;}
</style>
<path class="st0" d="M169.3,534.1c0-37.8,0.4-75.7-0.2-113.5c-0.2-14.6,7-20.8,17.4-20.9c54.3-0.6,108.7-0.6,163-0.1
	c11.4,0.1,55.9,51,56,63.9c0.4,59.7,1.3,119.4-0.5,179c-0.6,19.7-3.5,26.2-24.5,26c-63.7-0.5-127.4-0.2-191.1-0.2
	c-14.9,0-20.1-5.7-20.1-22.3C169.3,608.7,169.3,571.4,169.3,534.1z M360.8,655.2c0-30.1,0.3-58.8-0.2-87.5
	c-0.2-11.4-3.1-21.2-16.2-21.1c-38.9,0.3-77.9-0.3-116.8,0.7c-4.5,0.1-12.4,7.7-12.6,12.1c-1.1,31.8-0.6,63.6-0.6,95.8
	C263.6,655.2,311.4,655.2,360.8,655.2z M350.8,413.1c-47.3,0-91.5,0-136.4,0c0,25.3-0.7,49.7,0.6,74c0.3,5.2,7.8,14,12.1,14.1
	c36.5,1.1,73,0.9,109.5,0.2c3.4-0.1,9.5-5.5,9.8-9C348.5,466.4,349.4,440.2,350.8,413.1z"/>
<path class="st1" d="M305.1,432c7.9,0,14.4,0,21.4,0c0,16.8,0,33.1,0,50c-7.2,0-14,0-21.4,0C305.1,465.2,305.1,449,305.1,432z"/>
</svg>
