<?xml version="1.0" encoding="utf-8"?>
<!-- Generator: Adobe Illustrator 19.0.0, SVG Export Plug-In . SVG Version: 6.00 Build 0)  -->
<svg version="1.1" id="Layer_1" xmlns="http://www.w3.org/2000/svg" xmlns:xlink="http://www.w3.org/1999/xlink" x="0px" y="0px"
	 viewBox="0 0 612 792" style="enable-background:new 0 0 612 792;" xml:space="preserve">
<style type="text/css">
	.st0{fill:#55A635;stroke:#55A635;stroke-width:3;stroke-miterlimit:10;}
</style>
<path class="st0" d="M269.9,578.4c-18.7-15-39.3-28.6-55.6-45.4c-27.1-27.9-51.7-57.8-77.1-87.1c-15.7-18.1-14.6-35.7,2.2-48.1
	c17.1-12.6,36.8-10.2,54,6.6c6.7,6.6,13.2,13.4,23,23.3c0-36.6,0-69.5,0-102.4c0-16.3-0.3-32.7,0.1-49c0.4-19.9,13.3-32.1,33-32
	c19.7,0.1,32.2,12.3,32.6,32.5c0.3,16.3,0.1,32.6,0.1,45.6c16.3,3.8,30.9,7.2,51,12c20.9-6.7,30.1-4.5,45.8,14.8
	c34.3-7.9,50.5,3,50.8,34.6c0.3,34.5-1.9,69.1,0.6,103.4c3,41.1-9.4,73-53.9,91.1C341,578.4,305.4,578.4,269.9,578.4z M233,359.1
	c0,27.8,0.3,55.6-0.3,83.5c-0.1,4-4.1,7.9-6.2,11.9c-3.9-2-8.6-3.2-11.6-6c-10.7-10.2-20.9-20.8-31-31.4
	c-9.4-9.8-19.5-18.8-34.2-7.5c-13.3,10.3-6.5,20.1,2.3,29.9c19.2,21.3,37.7,42.9,56.7,64.3c61.3,68.8,41.6,59.7,142.8,60
	c37.9,0.1,61.3-20.8,61.7-54.2c0.4-30.2,0.1-60.5,0.1-90.7c0-14.5,1-29.2-1.1-43.5c-0.8-5.3-8.9-13.2-14.3-13.6
	c-5.1-0.4-11.3,7.2-16.4,11.9c-1.5,1.4,0.2,5.1-1.1,7c-2.1,3.2-5.4,5.8-8.2,8.7c-2.7-2.9-6.1-5.6-7.8-8.9c-1.3-2.5-0.1-6-0.4-9
	c-0.8-10.5,2.3-23.9-15.6-24.9c-18.6-1-17,12-17.1,23c0,1.2,0.5,2.7-0.2,3.6c-2.5,3.1-5.3,5.9-8,8.9c-2.8-2.9-7.3-5.5-7.9-8.7
	c-1.3-6.5,1.5-13.9-1.1-19.7c-2.6-5.7-9.7-9.8-14.9-14.6c-5.7,4.9-13.7,9-16.4,15c-2.9,6.2,0.4,14.5-1.1,21.5
	c-1,4.9-5.4,9.2-8.3,13.8c-2.6-4.8-7.4-9.7-7.5-14.5c-0.7-31.4-0.5-62.9-0.2-94.3c0.1-10.6-1.4-20.6-15.9-20.9
	c-16-0.3-17.2,10.4-17,21.6C233.2,307.1,233,333.1,233,359.1z"/>
</svg>
