<?xml version="1.0" encoding="utf-8"?>
<!-- Generator: Adobe Illustrator 19.0.0, SVG Export Plug-In . SVG Version: 6.00 Build 0)  -->
<svg version="1.1" id="Layer_1" xmlns="http://www.w3.org/2000/svg" xmlns:xlink="http://www.w3.org/1999/xlink" x="0px" y="0px"
	 viewBox="0 0 612 792" style="enable-background:new 0 0 612 792;" xml:space="preserve">
<style type="text/css">
	.st0{fill:#FFFFFF;stroke:#55A635;stroke-width:7;stroke-miterlimit:10;}
	.st1{fill:#FDFEFD;}
	.st2{fill:#56A646;}
	.st3{fill:#F7F9F7;}
	.st4{fill:#FAFCFA;}
	.st5{fill:#FFFFFF;}
	.st6{fill:#F9F9F9;}
	.st7{fill:#55A635;}
</style>
<ellipse id="XMLID_1_" class="st0" cx="320.3" cy="428" rx="277.5" ry="283"/>
<path class="st1" d="M401,272c-0.5-0.6-0.9-1.2-1.3-1.8c-2.2-1.6-4.2-3.3-6.3-5C395.5,267.9,398.2,271,401,272z"/>
<path class="st1" d="M439.6,266.1c-10.7-4.9-21.2-11.6-27.3-20.8c-1.7,1.1-4,1.1-5.9-0.8c-2-2-4.1-4-6.2-6c0.3,0.7,0.7,1.3,1,2
	c2,3.9-1.3,8.3-5.6,7.3c-4.4-1-8-2.9-10.9-5.3c3.9,5.2,8.5,10,13.5,14.4c1.1-0.7,2.5-1.1,4.1-0.7c12.5,2.8,23.2,9.8,34.1,16.4
	C435.6,269.9,437.2,266.9,439.6,266.1z"/>
<path class="st1" d="M422.3,231c-1.5-2.4-3-4.9-4.3-7.4c-2.5-1.6-5-3.1-7.6-4.4C414.3,223.2,418.3,227.2,422.3,231z"/>
<path class="st1" d="M454.7,271.8c-2-0.6-4-1.3-6.1-2.1c3,1.9,6,3.8,8.8,5.8c-0.4-1.2-0.8-2.4-1.2-3.5
	C455.7,272,455.2,272,454.7,271.8z"/>
<path class="st1" d="M412.9,235.5c-3-2.9-5.9-5.9-8.9-8.8c0,0-0.1,0-0.1,0.1c2.8,3.1,5.6,6.1,8.3,9.2
	C412.4,235.8,412.7,235.6,412.9,235.5z"/>
<path class="st1" d="M412.4,278.6c-0.7,0.6-1.4,1.2-2.2,1.6c2.9,0.7,5.9,1.4,8.9,2C416.9,281.1,414.6,279.9,412.4,278.6z"/>
<path class="st1" d="M482.2,272.3c-0.1-0.6-0.3-1.3-0.4-1.9c-0.7-1.4-1.3-2.7-2-4.1c0.7,1.9,1.4,3.8,2.1,5.7
	C482,272.1,482.1,272.2,482.2,272.3z"/>
<path class="st1" d="M498,611.5c0.2,0.1,0.3,0.2,0.5,0.4c0.2-0.3,0.4-0.6,0.6-0.9c0.6-1.5,1.1-3,1.6-4.5
	C499.8,608.1,498.9,609.8,498,611.5z"/>
<path class="st1" d="M171.9,582.4c0.4-0.6,0.7-1.2,1-1.9c-1.8-0.1-3.6-0.5-5.2-1.1c0.5,2.2,1,4.3,1.6,6.5
	C170.4,585,171.3,583.4,171.9,582.4z"/>
<path class="st1" d="M203.9,583c-0.7,1-1.5,2.1-2.3,3.3c0.2,0,0.4,0,0.5,0c1.8-2.1,3.4-4.3,5-6.6c-0.2-0.1-0.4-0.1-0.6-0.2
	C205.6,580.8,204.7,581.9,203.9,583z"/>
<path class="st1" d="M207.2,557c-1.3,1.7-2,3.8-1.9,6.2c0.1,1.2,0.3,2.3,0.6,3.2c0.1-0.1,0.2-0.2,0.4-0.3c-0.3-4,0.9-7.7,3.2-10.6
	C208.8,556,208,556.5,207.2,557z"/>
<path class="st1" d="M204.9,544c0.2-1.5,0-3.1-0.5-4.7c-1.6,1.4-3.4,2.6-5.4,3.7c1.6,0.9,3.3,1.5,5.2,1.8
	C204.4,544.5,204.7,544.2,204.9,544z"/>
<path class="st1" d="M196,567.8c-0.3-1-0.5-2-0.6-3c-0.9,0.5-1.8,0.9-2.8,1.3c-0.1,1.6-0.5,3.2-1.2,4.7c0.4,1,0.7,2,1,3.1
	c1.9-0.2,3.8-0.6,5.7-1.3C197.2,571.2,196.5,569.6,196,567.8z"/>
<path class="st1" d="M180.9,492.2c-1.1,1.8-1.2,3.5-0.3,4.6c3.4-2.5,7.8-4,12.6-4c0.5-0.6,1-1.2,1.5-1.8c1.2-1.5,2.4-3.4,3.4-5.4
	c-1.4-0.5-2.9-0.8-4.2-0.7C188.9,485,183.5,488,180.9,492.2z"/>
<path class="st1" d="M169,493L169,493c0.4,1,0.7,2,1,3c0-1,0-2.1,0.2-3.2C169.8,492.9,169.4,493,169,493z"/>
<path class="st1" d="M198.3,475.3c0.8,0.2,1.6,0.4,2.4,0.6c0-3.6-1.5-6.9-5.4-8.8c-2.2-1.1-4.4-1.3-6.4-0.8c0.3,3.1,0,6.4-0.8,9.5
	C191.4,474.8,194.9,474.6,198.3,475.3z"/>
<path class="st1" d="M173.3,459.7c-3.4-0.9-6.7,1.1-9.2,3.6c0.2,0,0.4-0.1,0.6-0.1c2.4-0.6,5.7,0.8,6.2,3.5c0.1,0.8,0.2,1.5,0.2,2.3
	c1.8-2.5,3.9-4.8,6.2-6.8C176.2,461,175,460.1,173.3,459.7z"/>
<path class="st2" d="M351.4,418.1c0.5,1.6,1.1,3.1,1.6,4.7C352.5,421.2,351.9,419.7,351.4,418.1z"/>
<path class="st2" d="M353.9,423.2c1.1,0.1,2.2,0.2,3.3,0.3C356.1,423.4,355,423.3,353.9,423.2z"/>
<path class="st2" d="M351.5,400.6c0.2,0.3,0.4,0.6,0.6,0.9c0,0.1-0.3,0.3-0.5,0.4C351.6,401.5,351.5,401.1,351.5,400.6z"/>
<path class="st2" d="M172.2,457.9c-0.6,0.4-1.1,0.9-1.7,1.3C171.1,458.8,171.7,458.3,172.2,457.9z"/>
<path class="st2" d="M169,605.8c0.6,0.3,1.1,0.6,1.7,0.9C170.1,606.4,169.5,606.1,169,605.8z"/>
<path class="st2" d="M370.7,549.7c-2.1,0.2-4.2,0.4-6.2,0.6C366.5,550.1,368.6,549.9,370.7,549.7z"/>
<path class="st2" d="M351.7,419.2c0.5,1.6,1.1,3.3,1.6,4.9C352.8,422.5,352.2,420.9,351.7,419.2z"/>
<path class="st2" d="M354.1,424.6c1.1,0.1,2.1,0.2,3.2,0.3C356.3,424.8,355.2,424.7,354.1,424.6z"/>
<path class="st2" d="M351.6,400.8c0.2,0.3,0.4,0.6,0.6,1c0,0.1-0.3,0.3-0.5,0.4C351.7,401.8,351.6,401.3,351.6,400.8z"/>
<path class="st2" d="M178.6,463.1c-0.5,0.5-1.1,0.9-1.6,1.4C177.5,464.1,178.1,463.6,178.6,463.1z"/>
<path class="st2" d="M177,618.7c0.5,0.3,1.1,0.6,1.6,1C178.1,619.3,177.6,619,177,618.7z"/>
<path class="st3" d="M344,395.7c-4.1,3-6.8,6.5-8.8,6.1c-2.6-0.5-4.6-4-6.9-6.2c2.2-2.1,4.3-5.5,6.6-5.7
	C337.2,389.7,339.8,392.9,344,395.7z"/>
<path class="st4" d="M331,425.8c-4.2,2.9-6.8,6-9.1,5.8c-2.4-0.2-4.4-3.7-6.6-5.8c2.3-2.2,4.3-5.7,6.9-6.2
	C324.1,419.3,326.9,422.8,331,425.8z"/>
<path class="st5" d="M406.5,425.5c-4.1,3-6.8,6.5-8.8,6.1c-2.6-0.5-4.6-4-6.9-6.2c2.2-2,4.3-5.5,6.7-5.7
	C399.7,419.4,402.3,422.6,406.5,425.5z"/>
<path class="st5" d="M306.2,456.3c-4,3.1-6.4,6.4-8.7,6.3c-2.4-0.1-4.7-3.4-7-5.3c2.1-2.3,3.9-5.9,6.5-6.6
	C299,450.3,302,453.6,306.2,456.3z"/>
<path class="st6" d="M265.3,454.8c2.9,4.1,6.2,6.6,6,8.9s-3.8,4.3-5.9,6.5c-2.3-2.2-5.8-4.2-6.3-6.8
	C258.6,461.5,262.2,458.8,265.3,454.8z"/>
<path class="st5" d="M410.1,472.7c-2.9-4.1-6.1-6.7-5.8-8.9c0.3-2.3,3.9-4.3,6-6.4c2.2,2.3,5.8,4.3,6.2,6.9
	C416.9,466.2,413.2,468.8,410.1,472.7z"/>
<path class="st5" d="M380.8,498.2c-2.8-4.2-6.1-7.1-5.6-9c0.7-2.5,4.4-4.2,6.8-6.3c1.9,2.3,5.3,4.5,5.4,6.9
	C387.5,492,384.1,494.3,380.8,498.2z"/>
<path class="st3" d="M426.9,502.2c-4.2,2.8-6.9,6-9.1,5.7c-2.4-0.2-4.4-3.7-6.6-5.8c2.3-2.2,4.4-5.6,7-6.1
	C420.1,495.7,422.8,499.2,426.9,502.2z"/>
<path class="st7" d="M119.7,438c0.6-0.7,1.6-1.2,1.9-2c11.4-39.5,33.8-74,56.2-108.5c7.8-12,16.4-23.7,24.7-35.5
	c9-12.8,26.1-13.3,35.4-0.7c27.9,38.1,53.7,77.3,72.8,120c6.2,13.9,11.6,28.4,11,43.8c-0.8,22.8-8.9,43-25.1,60.4
	c-14.2,15.2-31.7,25-52.4,29.7c-4.7,1.1-3.6,3.8-3.6,6.3c-0.1,28,0,56-0.1,83.9c0,2.2-0.4,4.3-0.5,6.5c-0.4,0-0.9,0-1.3,0
	c-6.8-0.4-13.6-1.1-20.4-1.1c-5.5,0-11.1,0.7-16.6,1.1c-0.4,0-0.9,0-1.3,0c-0.1-30.2-0.2-60.3-0.1-90.5c0-3.7-0.8-5.5-5.1-6.7
	c-38-10.1-62.3-33-72.9-68.8c-0.5-1.6-1.7-2.9-2.5-4.4C119.7,460.4,119.7,449.2,119.7,438z"/>
<path class="st2" d="M191,610.2c4.7-0.4,9.4-1,14.1-1c5.8,0,11.5,0.6,17.3,1C211.9,610.2,201.4,610.2,191,610.2z"/>
<path class="st7" d="M424.2,297.9c-2.3,22.4-14.9,36.6-36.8,36.5c-22.6-0.2-36.2-15.1-36-36.8c0.3-22.3,14.2-36.1,36-36.2
	C409.5,261.3,421.9,275.5,424.2,297.9z M388.3,269c-13.4-1.7-26.7,10.9-29.3,28c-2,13.4,10.5,26.9,27.5,29.7
	c13.3,2.2,27.8-11.5,29.7-28.1C417.7,284.9,404.7,271.1,388.3,269z"/>
<path class="st7" d="M339.9,262.3c-0.4,4.2-1.8,6.4-5.2,4.3c-4.7-2.9-9.2-6.2-13.3-9.8c-1-0.9-1.3-4.1-0.5-5.2
	c0.8-1,3.9-1.5,5.1-0.7c4.3,2.5,8.2,5.6,12.2,8.7C339.1,260.3,339.5,261.7,339.9,262.3z"/>
<path class="st7" d="M451.5,248.8c1.5,1.4,3,2.2,3.6,3.5c0.5,1,0.2,3.2-0.5,3.8c-4.7,3.8-9.6,7.4-14.6,10.8
	c-0.7,0.5-3.2-0.1-3.6-0.9c-0.8-1.4-1.5-4.4-0.7-5C440.6,256.8,446,253,451.5,248.8z"/>
<path class="st7" d="M328.8,317.3c1.7,1.2,4.4,2.3,4.3,3.3c-0.1,1.8-1.4,4.2-3,5c-4.1,2.2-8.4,4.1-12.8,5.1c-2,0.5-5.6-0.8-6.4-2.5
	c-1.3-2.4,0.5-4.3,3.6-5.2C319.2,321.6,323.6,319.4,328.8,317.3z"/>
<path class="st7" d="M446.8,317.5c5.8,2.3,11.1,4.2,16.3,6.5c0.9,0.4,1.7,3,1.3,4.2c-0.3,1.2-2.5,2.9-3.3,2.7
	c-6.1-2.1-12.2-4.4-18.1-7c-0.7-0.3-1.4-3.1-0.9-3.6C443.3,319,445.2,318.4,446.8,317.5z"/>
<path class="st7" d="M352.5,225.2c0.5,0.5,2,1.3,2.8,2.6c2.3,3.8,4.8,7.7,6.4,11.9c0.7,1.9-0.6,4.5-0.9,6.9
	c-2.1-0.8-5.1-1.1-6.1-2.6c-2.8-4.2-4.8-8.9-6.9-13.5C346.3,227.2,347.7,225.3,352.5,225.2z"/>
<path class="st7" d="M349.9,347.9c-0.4,0.7-1.2,2.5-2.5,3.8c-2.8,3.1-5.6,6.2-8.8,8.8c-1.3,1-3.5,0.8-5.3,1.1
	c-0.2-2.1-1.5-5-0.5-6.2c3.6-4.5,7.8-8.6,12.1-12.4C347.2,341,349.8,343,349.9,347.9z"/>
<path class="st7" d="M443.9,358.4c-1.1,1.4-1.8,3-3,3.5c-1.1,0.4-3.1,0-4-0.8c-3.5-3.1-7.1-6.3-9.8-10.1c-1.3-1.8-1.8-5.9-0.7-7.5
	c2.1-3.1,4.3-0.1,6,1.6c2.8,2.8,5.7,5.6,8.4,8.5C442,354.8,442.7,356.5,443.9,358.4z"/>
<path class="st7" d="M422.7,225c4.3,0.4,6.4,1.6,4.7,5.3c-2.1,4.6-4.2,9.2-6.9,13.4c-1,1.6-4,1.9-6,2.8c-0.3-2.1-1.5-4.4-0.9-6.1
	c1.6-4.4,3.9-8.5,6.1-12.6C420.5,226.5,422,225.7,422.7,225z"/>
<path class="st7" d="M372.2,379.1c-7.7,0.3-8.2-0.3-6.3-7c1-3.6,1.3-7.4,2.8-10.8c0.9-2,3.4-3.3,5.2-4.8c0.8,2.2,2.5,4.5,2.2,6.4
	C375.3,368.4,373.6,373.7,372.2,379.1z"/>
<path class="st7" d="M402.9,379c-1.3-5.1-3.1-10.3-3.9-15.7c-0.3-2.1,1.5-4.5,2.4-6.8c1.7,1.7,4.1,3.1,5,5.1c1.7,4,2.7,8.4,3.8,12.7
	C411,377.5,409.6,380.7,402.9,379z"/>
<path class="st7" d="M307.2,292.9c-0.5-7.8-0.5-7.7,6.4-6.6c4,0.6,8.2,0.5,12.2,1.5c1.5,0.3,2.6,2.6,3.8,4c-1.4,1.2-2.9,3.5-4.3,3.4
	C319.3,294.8,313.4,293.7,307.2,292.9z"/>
<path class="st7" d="M468.5,292.8c-6.4,0.9-12.3,2-18.3,2.4c-1.5,0.1-3.1-2.3-4.6-3.6c1.3-1.3,2.5-3.4,4-3.8
	c4.8-1.2,9.7-1.9,14.7-2.4C469.5,284.8,468,288.9,468.5,292.8z"/>
<path class="st7" d="M391.4,227.6c0,2.7,0.4,5.5-0.2,8.1c-0.3,1.4-2.3,3.3-3.6,3.4c-1.3,0-3.6-2-3.7-3.2c-0.4-5.4-0.4-10.8,0-16.2
	c0.1-1.2,2.5-3.1,3.8-3s3.1,2,3.5,3.4C391.8,222.5,391.4,225.1,391.4,227.6z"/>
</svg>
