<?xml version="1.0" encoding="utf-8"?>
<!-- Generator: Adobe Illustrator 19.0.0, SVG Export Plug-In . SVG Version: 6.00 Build 0)  -->
<svg version="1.1" id="Layer_1" xmlns="http://www.w3.org/2000/svg" xmlns:xlink="http://www.w3.org/1999/xlink" x="0px" y="0px"
	 viewBox="0 0 612 792" style="enable-background:new 0 0 612 792;" xml:space="preserve">
<style type="text/css">
	.st0{fill:#FFFFFF;stroke:#56A646;stroke-width:7;stroke-miterlimit:10;}
	.st1{fill:#56A646;}
</style>
<ellipse id="XMLID_1_" class="st0" cx="324.6" cy="428" rx="277.5" ry="283"/>
<g id="Computer-Elearning-Lesson-Online-Lesson">
	<path id="XMLID_9_" class="st1" d="M492,247.6v206.8c0,26.6-19.4,48.2-43.4,48.3H375l4.6,41.4h13.1c10.3,0,18.6,9.3,18.6,20.7
		c0,11.4-8.3,20.7-18.6,20.7h-74.4v-13.8h74.4c3.4,0,6.2-3.1,6.2-6.9s-2.8-6.9-6.2-6.9h-74.4v-13.8h48.8l-4.6-41.4h-44.1v-13.8
		h130.2c17.1,0,31-15.4,31-34.5v-6.9H318.4v-13.8h161.2V247.6c0-19-13.9-34.5-31-34.5h-248c-17.1,0-31,15.4-31,34.5v144.8h-12.4
		V247.6c0-26.6,19.4-48.2,43.4-48.3h248C472.6,199.3,492,220.9,492,247.6z"/>
	<path id="XMLID_8_" class="st1" d="M442.4,461.3h12.4v13.8h-12.4V461.3z"/>
	<path id="XMLID_17_" class="st1" d="M287.4,406.2H138.6c-10.3,0-18.6,9.3-18.6,20.7v165.5c0,11.4,8.3,20.7,18.6,20.7h148.8
		c10.3,0,18.6-9.3,18.6-20.7V426.8C306,415.4,297.7,406.2,287.4,406.2z M293.6,592.3c0,3.8-2.8,6.9-6.2,6.9H138.6
		c-3.4,0-6.2-3.1-6.2-6.9V426.8c0-3.8,2.8-6.9,6.2-6.9h148.8c3.4,0,6.2,3.1,6.2,6.9V592.3z"/>
	<path id="XMLID_14_" class="st1" d="M233.5,498.1l-19.8-14.7c-5.7-4.2-13.4-2.5-17.2,3.9c-1.3,2.3-2.1,4.9-2.1,7.6v29.4
		c0,7.6,5.5,13.8,12.4,13.8c2.5,0,4.9-0.8,6.9-2.3l19.8-14.7c5.7-4.2,7.2-12.8,3.4-19.1C236,500.4,234.9,499.1,233.5,498.1
		L233.5,498.1z M206.8,524.3v-29.4l19.8,14.7L206.8,524.3z"/>
	<path id="XMLID_11_" class="st1" d="M213,447.5c-30.8,0-55.8,27.8-55.8,62.1s25,62.1,55.8,62.1s55.8-27.8,55.8-62.1
		C268.8,475.3,243.8,447.6,213,447.5z M213,557.8c-24,0-43.4-21.6-43.4-48.3c0-26.7,19.4-48.3,43.4-48.3s43.4,21.6,43.4,48.3l0,0
		C256.4,536.2,237,557.8,213,557.8z"/>
</g>
<path id="XMLID_24_" class="st1" d="M454,363.8c-3-14-13.5-23.8-25.6-23.8c-0.9,0-1.9,0.1-2.8,0.2l6.2-15.2l0,0
	c0.3,0.2,0.6,0.3,1,0.3c0.8,0,1.6-0.5,2-1.5c0.5-1.3,0.1-2.9-1-3.5l-8.2-4.8l2.4-5.8c0.3-0.6,0.3-1.4,0.1-2
	c-0.2-0.7-0.6-1.2-1.1-1.5l-0.5-0.3l15.1-37.1c0.4,0,0.7,0,1.1-0.1c3.5-0.4,6.6-3,8.1-6.8l0.3-0.7c0.1,0,0.3,0,0.4,0
	c0.8,0,1.6-0.5,2-1.5c0.5-1.3,0.1-2.9-1-3.5l-19.4-11.4c-1.1-0.6-2.4-0.1-2.9,1.2c-0.4,1.1-0.2,2.4,0.5,3.1l-0.3,0.7
	c-1.5,3.8-1.3,8.3,0.5,11.9c0.2,0.4,0.4,0.7,0.6,1.1l-15.1,37.1l-0.5-0.3c-1.1-0.6-2.4-0.1-2.9,1.2l-2.4,5.8l-8.2-4.8
	c-1.1-0.6-2.4-0.1-2.9,1.2c-0.5,1.3-0.1,2.9,1,3.5l0,0l-8.5,20.9c-4.5,0.7-8.8,2.6-12.6,5.5c-4.5,3.4-8.2,8.1-10.8,13.7
	c-0.6-0.1-1.3-0.1-1.9-0.1c-9.3,0-17.8,6.6-21.6,16.9c-1.4,3.7-2.1,7.6-2.1,11.6c0,0.7,0.2,1.4,0.6,1.9s1,0.8,1.5,0.8h107.5
	c1.1,0,2.1-1,2.2-2.3c0.1-1.2,0.2-2.4,0.2-3.5C454.8,369.1,454.5,366.4,454,363.8z M446.6,259.6c-0.9,2.1-2.6,3.6-4.6,3.8
	c-3.1,0.4-6-1.4-7.7-4.5c-1.1-2-1.2-4.6-0.3-6.7l0.2-0.6l12.6,7.4L446.6,259.6z M434.7,266.5c0.7,0.5,1.4,0.9,2.2,1.3l-14.5,35.7
	l-2.2-1.3L434.7,266.5z M415.7,305.5l7.2,4.2l-1.4,3.4l-7.2-4.2L415.7,305.5z M427.8,322.7l-7.4,18.1c-5.9-8.4-14.5-13.5-23.7-13.7
	l7.4-18.3L427.8,322.7z M450.4,372.4H347.3c0.2-1.8,0.5-3.6,1-5.3h17c1.2,0,2.2-1.2,2.2-2.6s-1-2.6-2.2-2.6h-14.7
	c4.1-7.1,11.2-11.1,18.7-9.8c0.9,0.2,1.8-0.4,2.3-1.4c4.7-11.3,14.1-18.3,24.5-18.3c8.7,0,17,5.1,22.2,13.6c0.6,1,1.6,1.3,2.5,0.9
	c0.5-0.2,1-0.4,1.5-0.6c0,0,0,0,0,0c2-0.7,4-1,6.1-1c9.1,0,17.1,6.7,20.4,16.6h-55.1c-1.2,0-2.2,1.2-2.2,2.6c0,1.5,1,2.6,2.2,2.6
	h56.4c0.2,1.5,0.3,3.1,0.3,4.7C450.4,372,450.4,372.2,450.4,372.4z"/>
<path id="XMLID_12_" class="st1" d="M413.1,353.2c-0.7,0-1.3-0.4-1.8-1.1c-3.5-5.8-9.2-9.3-15.2-9.3c-1.2,0-2.2-1.2-2.2-2.6
	s1-2.6,2.2-2.6c7.4,0,14.4,4.3,18.7,11.5c0.7,1.2,0.5,2.8-0.5,3.7C414,353,413.5,353.2,413.1,353.2z"/>
<path id="XMLID_10_" class="st1" d="M386.3,367.1c-0.1,0-0.3,0-0.4-0.1c-0.1,0-0.3-0.1-0.4-0.2c-0.1-0.1-0.3-0.1-0.4-0.2
	c-0.1-0.1-0.2-0.2-0.3-0.3c-0.4-0.5-0.6-1.2-0.6-1.9c0-0.2,0-0.3,0-0.5c0-0.2,0.1-0.3,0.1-0.5c0.1-0.2,0.1-0.3,0.2-0.5
	c0.1-0.1,0.2-0.3,0.3-0.4c0.1-0.1,0.2-0.2,0.3-0.3c0.1-0.1,0.2-0.2,0.4-0.2c0.1-0.1,0.3-0.1,0.4-0.2c0.7-0.2,1.5,0.1,2,0.7
	c0.1,0.1,0.2,0.3,0.3,0.4c0.1,0.1,0.1,0.3,0.2,0.5c0.1,0.2,0.1,0.3,0.1,0.5c0,0.2,0,0.3,0,0.5c0,0.7-0.2,1.4-0.6,1.9
	C387.4,366.8,386.9,367.1,386.3,367.1z"/>
<g id="XMLID_49_">
	<g id="XMLID_50_">
		<path id="XMLID_51_" class="st1" d="M239.7,355.9c-0.5-11.2-6.2-21.4-15.2-27l-14.3-17.2c-1.9-2.4-4.9-3.4-7.7-2.6v-29.4
			c0-5-3.7-9-8.3-9s-8.3,4-8.3,9v42.4c0,3.4,0.8,6.8,2.3,9.8l18.3,35.8v8.4c0,1.2,0.9,2.2,2.1,2.2h29c1.1,0,2.1-1,2.1-2.2
			L239.7,355.9L239.7,355.9z M235.6,373.8h-24.8v-6.7c0-0.4-0.1-0.8-0.3-1.1l-18.6-36.3c-1.2-2.3-1.8-5-1.8-7.6v-42.4
			c0-2.5,1.9-4.5,4.1-4.5c2.3,0,4.1,2,4.1,4.5v32.2c-2.6,3.3-2.5,8.1,0.1,11.3l16.9,20.2l3.1-3l-16.9-20.2c-1.4-1.6-1.3-4.1,0.1-5.6
			c1.5-1.6,3.8-1.6,5.3,0c0,0.1,0.1,0.1,0.1,0.2l14.5,17.5c0.2,0.2,0.4,0.4,0.6,0.5c8.2,5.1,13.3,14.6,13.3,24.9V373.8z"/>
	</g>
</g>
<g id="XMLID_44_">
	<g id="XMLID_45_">
		<path id="XMLID_46_" class="st1" d="M301.8,270.7c-4.6,0-8.3,4-8.3,9v29.4c-0.7-0.2-1.4-0.3-2.1-0.3c-2.2,0.1-4.2,1.1-5.7,2.8
			l-14.3,17.2c-9,5.7-14.7,15.8-15.2,27h0V376c0,1.2,0.9,2.2,2.1,2.2h29c1.1,0,2.1-1,2.1-2.2v-8.4l18.1-35.6
			c1.7-3.1,2.6-6.6,2.6-10.2v-42.2C310.1,274.7,306.4,270.7,301.8,270.7z M305.9,321.9c0,2.8-0.7,5.6-2,8L285.5,366
			c-0.2,0.3-0.3,0.7-0.2,1.1v6.7h-24.8v-16.3c0-10.3,5.2-19.8,13.4-24.9c0.2-0.1,0.4-0.3,0.5-0.4l14.5-17.5c1.4-1.7,3.8-1.8,5.3-0.3
			c1.5,1.5,1.7,4.1,0.3,5.8l-17,20.2l3.1,3l16.9-20.2c2.7-3.2,2.7-8,0.1-11.3v-32.2c0-2.5,1.9-4.5,4.1-4.5c2.3,0,4.1,2,4.1,4.5
			V321.9L305.9,321.9z"/>
	</g>
</g>
<g id="XMLID_34_">
	<g id="XMLID_35_">
		<path id="XMLID_36_" class="st1" d="M272.8,299.8h-4.1c-7.4,0-14.4,3.9-18.6,10.5v-15h2.1c12.6,0,22.7-11,22.7-24.7
			c0-1.2-0.9-2.2-2.1-2.2h-4.1c-7.4,0-14.4,3.9-18.6,10.5v-15h2.1c9.1,0,16.5-8,16.5-17.9c0-1.2-0.9-2.2-2.1-2.2h-4.1
			c-6,0-11.6,3.6-14.5,9.3c-2.9-5.7-8.5-9.3-14.5-9.3h-4.1c-1.1,0-2.1,1-2.1,2.2c0,9.9,7.4,17.9,16.5,17.9h2.1v15
			c-4.2-6.6-11.2-10.5-18.6-10.5h-4.1c-1.1,0-2.1,1-2.1,2.2c0,13.6,10.2,24.6,22.7,24.7h2.1v15c-4.2-6.6-11.2-10.5-18.6-10.5h-4.1
			c-1.1,0-2.1,1-2.1,2.2c0,13.6,10.2,24.6,22.7,24.7h2.1v17.9h4.1v-17.9h2.1c12.6,0,22.7-11,22.7-24.7
			C274.9,300.8,274,299.8,272.8,299.8z M268.7,272.9h2c-1.1,10.2-9,17.9-18.5,17.9h-2C251.3,280.7,259.2,273,268.7,272.9z
			 M262.5,248.3h1.9c-1,6.5-6.2,11.2-12.2,11.2h-1.9C251.3,253,256.4,248.3,262.5,248.3z M243.9,259.5c-6.1,0-11.2-4.7-12.2-11.2
			h1.9c6.1,0,11.2,4.7,12.2,11.2H243.9z M243.9,290.9c-9.5,0-17.4-7.7-18.5-17.9h2c9.5,0,17.4,7.7,18.5,17.9H243.9z M243.9,322.3
			c-9.5,0-17.4-7.7-18.5-17.9h2c9.5,0,17.4,7.7,18.5,17.9H243.9z M252.2,322.3h-2c1.1-10.2,9-17.9,18.5-17.9h2
			C269.6,314.5,261.6,322.2,252.2,322.3z"/>
	</g>
</g>
</svg>
