<?xml version="1.0" encoding="utf-8"?>
<!-- Generator: Adobe Illustrator 19.0.0, SVG Export Plug-In . SVG Version: 6.00 Build 0)  -->
<svg version="1.1" id="Layer_1" xmlns="http://www.w3.org/2000/svg" xmlns:xlink="http://www.w3.org/1999/xlink" x="0px" y="0px"
	 viewBox="0 0 612 792" style="enable-background:new 0 0 612 792;" xml:space="preserve">
<style type="text/css">
	.st0{fill:#FFFFFF;stroke:#56A646;stroke-width:7;stroke-miterlimit:10;}
	.st1{fill:#56A646;}
</style>
<ellipse id="XMLID_1_" class="st0" cx="316.5" cy="428" rx="277.5" ry="283"/>
<path id="XMLID_4_" class="st1" d="M319.6,401.6c33.9,0,63.2-12.2,87.2-36.1c24-24,36.1-53.3,36.1-87.2c0-33.9-12.2-63.2-36.1-87.2
	c-24-24-53.3-36.1-87.2-36.1c-33.9,0-63.2,12.2-87.2,36.1s-36.1,53.3-36.1,87.2c0,33.9,12.2,63.2,36.1,87.2
	C256.4,389.5,285.7,401.6,319.6,401.6z"/>
<path id="XMLID_3_" class="st1" d="M527.1,528.2c-0.7-9.6-2.1-20.1-4.1-31.1c-2.1-11.1-4.7-21.7-7.9-31.3
	c-3.3-9.9-7.7-19.8-13.2-29.2c-5.7-9.8-12.4-18.3-20-25.3c-7.9-7.3-17.5-13.2-28.7-17.5c-11.1-4.3-23.4-6.4-36.6-6.4
	c-5.2,0-10.2,2.1-19.9,8.2c-6,3.8-12.9,8.1-20.7,13c-6.6,4.1-15.6,8-26.8,11.5c-10.8,3.4-21.9,5.1-32.7,5.1s-21.9-1.7-32.7-5.1
	c-11.1-3.5-20.1-7.3-26.7-11.4c-7.7-4.8-14.7-9.1-20.7-13c-9.7-6.1-14.7-8.2-19.8-8.2c-13.2,0-25.5,2.2-36.6,6.4
	c-11.2,4.3-20.8,10.2-28.7,17.5c-7.5,7-14.3,15.5-20,25.3c-5.5,9.4-10,19.2-13.2,29.2c-3.2,9.6-5.8,20.2-7.9,31.3
	c-2,11-3.4,21.5-4.1,31.1c-0.7,9.4-1,19.2-1,29.1c0,25.7,8.4,46.5,25,61.9c16.4,15.2,38.1,22.8,64.4,22.8h244.2
	c26.4,0,48-7.7,64.4-22.8c16.6-15.3,25-36.2,25-61.9C528.1,547.3,527.7,537.6,527.1,528.2z"/>
</svg>
